<?xml version="1.0" encoding="utf-8"?>
<!-- Generator: Adobe Illustrator 27.8.1, SVG Export Plug-In . SVG Version: 6.00 Build 0)  -->
<svg version="1.1" id="Layer_1" xmlns="http://www.w3.org/2000/svg" xmlns:xlink="http://www.w3.org/1999/xlink" x="0px" y="0px"
	 viewBox="0 0 200 200" style="enable-background:new 0 0 200 200;" xml:space="preserve">
<style type="text/css">
	.st0{fill:none;stroke:#000000;stroke-width:3;stroke-miterlimit:10;}
	.st1{fill-rule:evenodd;clip-rule:evenodd;fill:#9FA1A2;}
	.st2{fill-rule:evenodd;clip-rule:evenodd;fill:#4A4D4F;}
	.st3{fill-rule:evenodd;clip-rule:evenodd;fill:#737577;}
	.st4{fill-rule:evenodd;clip-rule:evenodd;fill:#24272A;}
</style>
<g>
	<path d="M100,185.6c-47.2,0-85.6-38.4-85.6-85.6c0-47.2,38.4-85.6,85.6-85.6s85.6,38.4,85.6,85.6
		C185.6,147.2,147.2,185.6,100,185.6z M100,22.6c-42.7,0-77.4,34.7-77.4,77.4c0,42.7,34.7,77.4,77.4,77.4
		c42.7,0,77.4-34.7,77.4-77.4C177.4,57.3,142.7,22.6,100,22.6z"/>
	<g>
		<path d="M61.2,68.8c-0.4,0-0.7-0.2-1-0.5c-0.2-0.3-0.4-0.6-0.4-0.9c0-0.4,0.2-0.7,0.5-1l12.9-11.6c0.6-0.5,1.4-0.5,1.9,0.1
			c0.2,0.3,0.4,0.6,0.4,0.9c0,0.4-0.2,0.7-0.5,1L62.1,68.5C61.9,68.7,61.5,68.8,61.2,68.8z"/>
		<path d="M86.9,68.8c-0.3,0-0.7-0.1-0.9-0.4L73.2,56.9c-0.3-0.3-0.4-0.6-0.4-1c0-0.3,0.1-0.7,0.4-0.9c0.5-0.6,1.4-0.6,1.9-0.1
			l12.9,11.6c0.3,0.3,0.5,0.6,0.5,1c0,0.3-0.1,0.7-0.4,0.9C87.7,68.7,87.3,68.8,86.9,68.8z"/>
		<path d="M87.1,68.8c-0.4,0-0.7-0.2-1-0.5c-0.2-0.3-0.4-0.6-0.4-0.9c0-0.4,0.2-0.7,0.5-1l12.9-11.6c0.6-0.5,1.4-0.5,1.9,0.1
			c0.2,0.3,0.4,0.6,0.4,0.9c0,0.4-0.2,0.7-0.5,1L88.1,68.5C87.8,68.7,87.5,68.8,87.1,68.8z"/>
		<path d="M112.9,68.8c-0.3,0-0.7-0.1-0.9-0.4L99.1,56.9c-0.3-0.3-0.5-0.6-0.5-1c0-0.3,0.1-0.7,0.4-0.9c0.5-0.6,1.4-0.6,1.9-0.1
			l12.9,11.6c0.3,0.3,0.5,0.6,0.5,1c0,0.3-0.1,0.7-0.4,0.9C113.6,68.7,113.2,68.8,112.9,68.8z"/>
		<path d="M113.1,68.8c-0.4,0-0.7-0.2-1-0.5c-0.2-0.3-0.4-0.6-0.4-0.9c0-0.4,0.2-0.7,0.5-1L125,54.8c0.6-0.5,1.4-0.5,1.9,0.1
			c0.2,0.3,0.4,0.6,0.4,0.9c0,0.4-0.2,0.7-0.5,1L114,68.5C113.7,68.7,113.4,68.8,113.1,68.8z"/>
		<path d="M138.8,68.8c-0.3,0-0.7-0.1-0.9-0.4L125,56.9c-0.3-0.3-0.5-0.6-0.5-1c0-0.3,0.1-0.7,0.4-0.9c0.5-0.6,1.4-0.6,1.9-0.1
			l12.9,11.6c0.3,0.3,0.5,0.6,0.5,1c0,0.3-0.1,0.7-0.4,0.9C139.5,68.7,139.2,68.8,138.8,68.8z"/>
	</g>
	<g>
		<path d="M61.2,80.1c-0.4,0-0.7-0.2-1-0.5c-0.2-0.3-0.4-0.6-0.4-0.9c0-0.4,0.2-0.7,0.5-1l12.9-11.6c0.6-0.5,1.4-0.5,1.9,0.1
			c0.2,0.3,0.4,0.6,0.4,0.9c0,0.4-0.2,0.7-0.5,1L62.1,79.8C61.9,80,61.5,80.1,61.2,80.1z"/>
		<path d="M86.9,80.1c-0.3,0-0.7-0.1-0.9-0.4L73.2,68.2c-0.3-0.3-0.4-0.6-0.4-1c0-0.3,0.1-0.6,0.4-0.9c0.5-0.6,1.4-0.6,1.9-0.1
			l12.9,11.6c0.3,0.3,0.5,0.6,0.5,1c0,0.3-0.1,0.7-0.4,0.9C87.7,80,87.3,80.1,86.9,80.1z"/>
		<path d="M87.1,80.1c-0.4,0-0.7-0.2-1-0.5c-0.2-0.3-0.4-0.6-0.4-0.9c0-0.4,0.2-0.7,0.5-1l12.9-11.6c0.6-0.5,1.4-0.5,1.9,0.1
			c0.2,0.3,0.4,0.6,0.4,0.9c0,0.4-0.2,0.7-0.5,1L88.1,79.8C87.8,80,87.5,80.1,87.1,80.1z"/>
		<path d="M112.9,80.1c-0.3,0-0.7-0.1-0.9-0.4L99.1,68.2c-0.3-0.3-0.5-0.6-0.5-1c0-0.3,0.1-0.6,0.4-0.9c0.5-0.6,1.4-0.6,1.9-0.1
			l12.9,11.6c0.3,0.3,0.5,0.6,0.5,1c0,0.3-0.1,0.7-0.4,0.9C113.6,80,113.2,80.1,112.9,80.1z"/>
		<path d="M113.1,80.1c-0.4,0-0.7-0.2-1-0.5c-0.2-0.3-0.4-0.6-0.4-0.9c0-0.4,0.2-0.7,0.5-1L125,66.1c0.6-0.5,1.4-0.5,1.9,0.1
			c0.2,0.3,0.4,0.6,0.4,0.9c0,0.4-0.2,0.7-0.5,1L114,79.8C113.7,80,113.4,80.1,113.1,80.1z"/>
		<path d="M138.8,80.1c-0.3,0-0.7-0.1-0.9-0.4L125,68.2c-0.3-0.3-0.5-0.6-0.5-1c0-0.3,0.1-0.6,0.4-0.9c0.5-0.6,1.4-0.6,1.9-0.1
			l12.9,11.6c0.3,0.3,0.5,0.6,0.5,1c0,0.3-0.1,0.7-0.4,0.9C139.5,80,139.2,80.1,138.8,80.1z"/>
	</g>
	<g>
		<path d="M61.2,91.4c-0.4,0-0.7-0.2-1-0.5c-0.2-0.3-0.4-0.6-0.4-0.9c0-0.4,0.2-0.8,0.5-1l12.9-11.6c0.6-0.5,1.4-0.5,1.9,0.1
			c0.2,0.3,0.4,0.6,0.4,0.9c0,0.4-0.2,0.8-0.5,1L62.1,91.1C61.9,91.3,61.5,91.4,61.2,91.4z"/>
		<path d="M86.9,91.4c-0.3,0-0.7-0.1-0.9-0.4L73.2,79.5c-0.3-0.3-0.4-0.6-0.4-1c0-0.3,0.1-0.7,0.4-0.9c0.5-0.6,1.4-0.6,1.9-0.1
			l12.9,11.6c0.3,0.3,0.5,0.6,0.5,1c0,0.3-0.1,0.7-0.4,0.9C87.7,91.3,87.3,91.4,86.9,91.4z"/>
		<path d="M87.1,91.4c-0.4,0-0.7-0.2-1-0.5c-0.2-0.3-0.4-0.6-0.4-0.9c0-0.4,0.2-0.8,0.5-1l12.9-11.6c0.6-0.5,1.4-0.5,1.9,0.1
			c0.2,0.3,0.4,0.6,0.4,0.9c0,0.4-0.2,0.8-0.5,1L88.1,91.1C87.8,91.3,87.5,91.4,87.1,91.4z"/>
		<path d="M112.9,91.4c-0.3,0-0.7-0.1-0.9-0.4L99.1,79.5c-0.3-0.3-0.5-0.6-0.5-1c0-0.3,0.1-0.7,0.4-0.9c0.5-0.6,1.4-0.6,1.9-0.1
			l12.9,11.6c0.3,0.3,0.5,0.6,0.5,1c0,0.3-0.1,0.7-0.4,0.9C113.6,91.3,113.2,91.4,112.9,91.4z"/>
		<path d="M113.1,91.4c-0.4,0-0.7-0.2-1-0.5c-0.2-0.3-0.4-0.6-0.4-0.9c0-0.4,0.2-0.8,0.5-1L125,77.4c0.6-0.5,1.4-0.5,1.9,0.1
			c0.2,0.3,0.4,0.6,0.4,0.9c0,0.4-0.2,0.8-0.5,1L114,91.1C113.7,91.3,113.4,91.4,113.1,91.4z"/>
		<path d="M138.8,91.4c-0.3,0-0.7-0.1-0.9-0.4L125,79.5c-0.3-0.3-0.5-0.6-0.5-1c0-0.3,0.1-0.7,0.4-0.9c0.5-0.6,1.4-0.6,1.9-0.1
			l12.9,11.6c0.3,0.3,0.5,0.6,0.5,1c0,0.3-0.1,0.7-0.4,0.9C139.5,91.3,139.2,91.4,138.8,91.4z"/>
	</g>
	<g>
		<path class="st0" d="M82.6,120.8c0-11.6,9.2-18.4,18.9-18.4c9.8,0,19.1,6.9,19.1,18.1c0,4.4-1.4,8-2.6,10.5
			c-2.8,6.1-11.6,21.4-15.7,28.4H89.5l12-20.6C90.8,138.7,82.6,131.7,82.6,120.8z M94,120.8c0,5.7,4.5,7.5,7.6,7.5s7.6-1.8,7.6-7.5
			c0-5.5-4.1-7.6-7.6-7.6C98,113.2,94,115.3,94,120.8z"/>
	</g>
</g>
</svg>
