<?xml version="1.0" encoding="utf-8"?>
<!-- Generator: Adobe Illustrator 27.8.1, SVG Export Plug-In . SVG Version: 6.00 Build 0)  -->
<svg version="1.1" id="Layer_1" xmlns="http://www.w3.org/2000/svg" xmlns:xlink="http://www.w3.org/1999/xlink" x="0px" y="0px"
	 viewBox="0 0 200 200" style="enable-background:new 0 0 200 200;" xml:space="preserve">
<style type="text/css">
	.st0{fill:none;stroke:#000000;stroke-width:3;stroke-miterlimit:10;}
	.st1{fill-rule:evenodd;clip-rule:evenodd;fill:#9FA1A2;}
	.st2{fill-rule:evenodd;clip-rule:evenodd;fill:#4A4D4F;}
	.st3{fill-rule:evenodd;clip-rule:evenodd;fill:#737577;}
	.st4{fill-rule:evenodd;clip-rule:evenodd;fill:#24272A;}
</style>
<path d="M100,185.6c-47.2,0-85.6-38.4-85.6-85.6c0-47.2,38.4-85.6,85.6-85.6s85.6,38.4,85.6,85.6C185.6,147.2,147.2,185.6,100,185.6
	z M100,22.6c-42.7,0-77.4,34.7-77.4,77.4c0,42.7,34.7,77.4,77.4,77.4c42.7,0,77.4-34.7,77.4-77.4C177.4,57.3,142.7,22.6,100,22.6z"
	/>
<g>
	<path class="st1" d="M112.1,131.1c0.1-0.9-0.3-1.7-0.7-2.4c-4.2-7.4-10.8-11-18.9-12.5c-5.3-1-10.8-0.9-16.1-1.7
		c-12.7-1.8-23-7.3-29.3-18.9c-1.5-2.8-2.3-6-2.3-9.3c0-3.3,1.4-5.8,4.1-7.7c3.3-2.3,7-3.1,10.8-3.5c0.4,0,0.8,0.1,1.1-0.3
		c0.2,0,0.4,0.1,0.5,0.3c1.4,3.2,3.4,6,5.6,8.7c4.9,5.8,11.2,9.5,18.3,12.2c4.4,1.7,9,3.1,13.2,5.3c7.6,4,12.8,9.9,14.4,18.5
		c0.5,2.9,0.6,5.8,0.1,8.7c-0.1,0.7-0.1,1.4-0.3,2C112.5,131,112.4,131.1,112.1,131.1z"/>
	<path class="st2" d="M61.1,75.2c-0.1-0.1-0.2-0.2-0.2-0.3c-1.8-4.4-2.6-8.9-1.7-13.6c1-5.3,3.8-7.9,9.1-8.6c3.7-0.5,7.4,0,11,0.8
		c-0.4,10.6,3.9,19.3,11.1,26.8c3.2,3.3,7.1,5.7,10.8,8.3c3.7,2.5,7.4,4.8,10.5,8.1c2.2,2.3,4.2,4.8,5.4,7.8
		c-0.9,0.2-1.3-0.5-1.8-0.9c-7.4-6.2-15.3-11.6-23.3-17c-5.3-3.5-10.8-6.6-16.8-8.8c-3.8-1.4-7.7-2.3-11.8-2.2
		C62.6,75.5,61.8,75.7,61.1,75.2z"/>
	<path class="st3" d="M111.3,134.4c2.6-1.9,4.9-7.5,6-10.3c2.6-6.5,2.6-13.1-0.3-19.5c-1.6-1.1-2.9-2.5-4.5-3.6
		c-8.9-6.5-17.6-13.4-27.3-18.8c-7.5-4.2-15.3-7.5-24.2-6.9c-0.1,0.5,0.2,1,0.4,1.4c1.8,3.5,4.2,6.8,6.9,9.6
		c4.7,4.8,10.4,8,16.7,10.3c5.2,1.9,10.5,3.5,15.3,6.5c9,5.7,13.3,13.7,12.3,24.3c-0.1,1.2-0.2,2.5-0.5,3.8
		C111.9,132.2,111.6,133.3,111.3,134.4"/>
	<path class="st4" d="M79.3,53.5c0.4-2.7,0.9-5.3,2.1-7.8c2.2-4.5,5.6-6.2,10.8-5.6c9.1,1,16.1,6,21.7,13
		c5.7,7.1,9.8,15.1,13.6,23.3c4.2,8.9,8.4,17.7,10.8,27.3c2.9,11,5.7,22.1,8.4,33.1c0.8,3.3,0.7,6.7-0.5,9.9
		c-1.9,5.3-6.1,7.8-11.3,8.9c-8.8,1.7-16.3-0.8-22.8-6.7c-0.4-0.4-0.9-0.8-1.3-1.2c-3.1-2.5-3.5-5.4-1.8-9.2
		c0.7-1.4,1.6-2.7,2.4-4.1c0.8-1.2,1.4-2,1.9-2.7c2.8-4.3,4.7-8.6,5.4-13.8c0.6-4.5,0.2-9-1.8-13.2c-2.5-5.6-6.8-9.6-11.7-13
		c-4-2.8-8.1-5.2-11.9-8.3C86,77.4,81.3,69.9,79.4,60.8c-0.4-2-0.5-4.1-0.5-6.2C78.9,54.2,78.9,53.8,79.3,53.5z"/>
</g>
</svg>
