<?xml version="1.0" encoding="utf-8"?>
<!-- Generator: Adobe Illustrator 27.8.1, SVG Export Plug-In . SVG Version: 6.00 Build 0)  -->
<svg version="1.1" id="Layer_1" xmlns="http://www.w3.org/2000/svg" xmlns:xlink="http://www.w3.org/1999/xlink" x="0px" y="0px"
	 viewBox="0 0 85.3 128" style="enable-background:new 0 0 85.3 128;" xml:space="preserve">
<path d="M77.8,83.9c-4.9-4.9-11.4-7.6-18.3-7.6c-6.2,0-12.1,2.2-16.8,6.2c-3.1-2.7-6.8-4.5-10.7-5.5V18.2C32,12.6,36.5,8,42.2,8h0.5
	C48.4,8,53,12.6,53,18.2v42.1c0,2.2,1.8,4,4,4s4-1.8,4-4V18.2C61,8.2,52.8,0,42.7,0h-0.5C32.1,0,24,8.2,24,18.2v58.2
	c-6.2,0.4-11.9,3-16.4,7.5C2.7,88.8,0,95.3,0,102.2c0,6.9,2.7,13.4,7.6,18.3c4.9,4.9,11.4,7.6,18.3,7.6s13.4-2.7,18.3-7.6
	c2-2,3.6-4.2,4.9-6.7c1-2,0.2-4.4-1.8-5.4c-2-1-4.4-0.2-5.4,1.8c-0.9,1.7-2,3.3-3.4,4.6c-3.4,3.4-7.9,5.2-12.6,5.2
	s-9.3-1.9-12.6-5.2c-3.4-3.4-5.2-7.8-5.2-12.6c0-4.8,1.9-9.2,5.2-12.6c3.4-3.4,7.9-5.2,12.6-5.2s9.3,1.9,12.6,5.2
	c0.4,0.4,0.8,0.8,1.1,1.2c0.1,0.1,0.2,0.2,0.3,0.3c0.1,0.1,0.2,0.2,0.3,0.3c0,0,0,0,0,0c0.1,0.1,0.3,0.2,0.4,0.3
	c0.1,0.1,0.2,0.1,0.3,0.2c0.1,0.1,0.2,0.1,0.4,0.1c0.1,0.1,0.2,0.1,0.4,0.1c0.1,0,0.2,0,0.3,0.1c0.2,0,0.3,0.1,0.5,0.1
	c0.1,0,0.2,0,0.3,0c0.2,0,0.3,0,0.5,0c0.1,0,0.2,0,0.3-0.1c0.1,0,0.3,0,0.4-0.1c0.1,0,0.2-0.1,0.3-0.1c0.1-0.1,0.3-0.1,0.4-0.2
	c0.1,0,0.2-0.1,0.3-0.2c0.1-0.1,0.3-0.2,0.4-0.3c0,0,0,0,0,0c0.1-0.1,0.2-0.2,0.3-0.3c0.1-0.1,0.2-0.2,0.3-0.2
	c0.4-0.4,0.7-0.8,1.1-1.2c3.4-3.4,7.9-5.2,12.6-5.2s9.3,1.9,12.6,5.2c3.4,3.4,5.2,7.8,5.2,12.6c0,4.8-1.9,9.2-5.2,12.6
	c-3.4,3.4-7.9,5.2-12.6,5.2c-2.2,0-4,1.8-4,4s1.8,4,4,4c6.9,0,13.4-2.7,18.3-7.6c4.9-4.9,7.6-11.4,7.6-18.3
	C85.3,95.3,82.6,88.8,77.8,83.9z"/>
</svg>
