<?xml version="1.0" encoding="utf-8"?>
<!-- Generator: Adobe Illustrator 27.8.1, SVG Export Plug-In . SVG Version: 6.00 Build 0)  -->
<svg version="1.1" id="Layer_1" xmlns="http://www.w3.org/2000/svg" xmlns:xlink="http://www.w3.org/1999/xlink" x="0px" y="0px"
	 viewBox="0 0 200 200" style="enable-background:new 0 0 200 200;" xml:space="preserve">
<style type="text/css">
	.st0{fill:none;stroke:#000000;stroke-width:3;stroke-miterlimit:10;}
	.st1{fill-rule:evenodd;clip-rule:evenodd;fill:#9FA1A2;}
	.st2{fill-rule:evenodd;clip-rule:evenodd;fill:#4A4D4F;}
	.st3{fill-rule:evenodd;clip-rule:evenodd;fill:#737577;}
	.st4{fill-rule:evenodd;clip-rule:evenodd;fill:#24272A;}
</style>
<path d="M100,185.6c-47.2,0-85.6-38.4-85.6-85.6c0-47.2,38.4-85.6,85.6-85.6s85.6,38.4,85.6,85.6C185.6,147.2,147.2,185.6,100,185.6
	z M100,22.6c-42.7,0-77.4,34.7-77.4,77.4c0,42.7,34.7,77.4,77.4,77.4c42.7,0,77.4-34.7,77.4-77.4C177.4,57.3,142.7,22.6,100,22.6z"
	/>
<path d="M100,149.3c48.3,0,51.2-19.2,51.3-20c0-0.2,0-0.4,0-0.6l-2-10.9c0-0.5-0.1-0.9-0.3-1.4l0,0v0c-2.4-7.6-16.3-12.6-38.3-13.9
	c0.2-2.4,0.5-4.5,0.7-5.8c8.2-0.5,14.2-5,17.8-8.8c2.7-2.9,3.8-7.1,2.7-11l-3-11.2c-0.3-8.5-12.9-15.1-29-15.1s-28.7,6.6-29,15.1
	L68,77c-1.1,3.9,0,8.1,2.7,11c3.6,3.8,9.6,8.3,17.8,8.8c0.2,1.3,0.5,3.3,0.7,5.8c-22,1.2-36,6.2-38.3,13.9c0,0.1,0,0.1,0,0.2
	l-0.2,1.1c0,0,0,0,0,0.1l-2,10.9c0,0.2,0,0.4,0,0.6C48.8,130.1,51.7,149.3,100,149.3L100,149.3z M145.5,117.5l0.2,0.8
	c0,0.1,0,0.3,0,0.4c0,0,0,0.1,0,0.1c0,0,0,0.1,0,0.1c0,0.1,0,0.2-0.1,0.4c0,0,0,0.1,0,0.1c0,0,0,0.1,0,0.1c-0.1,0.3-0.2,0.5-0.3,0.7
	c0,0-0.1,0.1-0.1,0.2c0,0-0.1,0.1-0.1,0.1c-0.3,0.5-0.8,1.1-1.5,1.7c0-0.1-0.1-0.1-0.2-0.2c0,0,0,0-0.1-0.1
	c-0.1-0.1-0.2-0.3-0.3-0.4c0,0-0.1-0.1-0.1-0.1c-0.1-0.1-0.2-0.2-0.3-0.3c0,0-0.1-0.1-0.1-0.1c-0.1-0.1-0.3-0.3-0.5-0.5l0,0
	c-0.2-0.1-0.3-0.3-0.5-0.4c0,0-0.1-0.1-0.2-0.1c-0.1-0.1-0.3-0.2-0.5-0.4c0,0-0.1-0.1-0.1-0.1c-0.2-0.2-0.4-0.3-0.7-0.5
	c0,0-0.1-0.1-0.1-0.1c-0.2-0.1-0.4-0.3-0.6-0.4c-0.1,0-0.1-0.1-0.2-0.1c-0.2-0.1-0.5-0.3-0.8-0.5c0,0,0,0-0.1,0
	c-0.3-0.2-0.6-0.3-0.9-0.5c-0.1,0-0.2-0.1-0.3-0.1c-0.3-0.1-0.5-0.3-0.8-0.4c-0.1,0-0.2-0.1-0.3-0.1c-0.4-0.2-0.7-0.3-1.1-0.5
	c0,0-0.1,0-0.2-0.1c-0.3-0.1-0.7-0.3-1.1-0.4c-0.1,0-0.2-0.1-0.4-0.1c-0.4-0.1-0.7-0.3-1.1-0.4c-0.1,0-0.1,0-0.2-0.1
	c-0.5-0.1-0.9-0.3-1.4-0.4c-0.1,0-0.2-0.1-0.4-0.1c-0.4-0.1-0.8-0.2-1.2-0.3c-0.1,0-0.3-0.1-0.4-0.1c-0.5-0.1-1.1-0.3-1.7-0.4h0
	c-0.6-0.1-1.1-0.2-1.7-0.4c-0.2,0-0.3-0.1-0.5-0.1c-0.5-0.1-1-0.2-1.5-0.3c-0.1,0-0.3,0-0.4-0.1c-0.7-0.1-1.3-0.2-2-0.3
	c-0.1,0-0.3,0-0.5-0.1c-0.6-0.1-1.2-0.1-1.8-0.2c-0.2,0-0.4,0-0.7-0.1c-0.7-0.1-1.4-0.1-2.1-0.2c-0.1,0-0.2,0-0.2,0
	c-0.8-0.1-1.6-0.1-2.4-0.2c-0.2,0-0.5,0-0.7,0c-0.3,0-0.6,0-0.9-0.1c-0.2-1.8-0.3-3.7-0.3-5.7C134,107.6,143.9,112.8,145.5,117.5
	L145.5,117.5z M140.4,124.6c-0.2,0.1-0.3,0.2-0.5,0.3c-0.1,0.1-0.3,0.1-0.5,0.2c-0.4,0.2-0.8,0.4-1.3,0.6c-0.2,0.1-0.4,0.2-0.7,0.3
	c-5.1,1.9-12.7,2.8-19.1-0.5c-3.3-1.7-5.5-5-6.7-9.7C132.6,117,138.7,122.2,140.4,124.6z M100,54.4c15.1,0,25.3,6.1,25.3,11.7
	c0,0.3,0,0.5-0.1,0.8c0,0.1,0,0.1,0,0.2c0,0.2-0.1,0.4-0.1,0.5c0,0.1,0,0.1-0.1,0.2c-0.1,0.2-0.2,0.5-0.3,0.7c0,0,0,0,0,0.1
	c-0.1,0.2-0.2,0.4-0.3,0.6c0,0.1-0.1,0.1-0.1,0.2c-0.1,0.2-0.2,0.3-0.3,0.5c0,0-0.1,0.1-0.1,0.1c-0.1,0.2-0.3,0.3-0.4,0.5
	c-0.1-0.1-0.3-0.2-0.5-0.3c-0.1-0.1-0.3-0.2-0.4-0.3c-0.2-0.2-0.5-0.3-0.7-0.5c-0.1-0.1-0.3-0.2-0.4-0.3c-0.3-0.2-0.6-0.3-0.9-0.5
	c-0.1,0-0.2-0.1-0.3-0.2c-0.4-0.2-0.9-0.4-1.3-0.6c-0.1,0-0.2-0.1-0.3-0.1c-0.4-0.1-0.7-0.3-1.1-0.4c-0.2-0.1-0.3-0.1-0.5-0.2
	c-0.3-0.1-0.6-0.2-0.9-0.3c-0.2-0.1-0.4-0.1-0.6-0.2c-0.3-0.1-0.6-0.2-0.9-0.3c-0.2-0.1-0.4-0.1-0.7-0.2c-0.3-0.1-0.6-0.2-0.9-0.2
	c-0.2-0.1-0.5-0.1-0.7-0.2c-0.3-0.1-0.6-0.1-0.9-0.2c-0.2,0-0.5-0.1-0.7-0.1c-0.3-0.1-0.6-0.1-0.9-0.2c-0.2,0-0.5-0.1-0.7-0.1
	c-0.3,0-0.6-0.1-1-0.1c-0.2,0-0.5-0.1-0.7-0.1c-0.3,0-0.7-0.1-1-0.1c-0.2,0-0.5,0-0.7-0.1c-0.4,0-0.7-0.1-1.1-0.1
	c-0.2,0-0.5,0-0.7,0c-0.4,0-0.8,0-1.2-0.1c-0.2,0-0.4,0-0.6,0c-0.6,0-1.2,0-1.8,0s-1.2,0-1.8,0c-0.2,0-0.4,0-0.6,0
	c-0.4,0-0.8,0-1.2,0.1c-0.2,0-0.5,0-0.7,0c-0.4,0-0.7,0-1.1,0.1c-0.2,0-0.5,0-0.7,0.1c-0.3,0-0.7,0.1-1,0.1c-0.2,0-0.5,0.1-0.7,0.1
	c-0.3,0-0.6,0.1-1,0.1c-0.2,0-0.5,0.1-0.7,0.1c-0.3,0.1-0.6,0.1-0.9,0.2c-0.2,0-0.5,0.1-0.7,0.1c-0.3,0.1-0.6,0.1-0.9,0.2
	c-0.2,0-0.5,0.1-0.7,0.2c-0.3,0.1-0.6,0.2-0.9,0.2c-0.2,0.1-0.4,0.1-0.7,0.2c-0.3,0.1-0.6,0.2-0.9,0.3c-0.2,0.1-0.4,0.1-0.6,0.2
	c-0.3,0.1-0.6,0.2-0.9,0.3c-0.2,0.1-0.3,0.1-0.5,0.2c-0.4,0.1-0.7,0.3-1.1,0.4c-0.1,0-0.2,0.1-0.3,0.1c-0.4,0.2-0.9,0.4-1.3,0.6
	c-0.1,0-0.2,0.1-0.3,0.2c-0.3,0.2-0.6,0.3-0.9,0.5c-0.1,0.1-0.3,0.2-0.4,0.3c-0.2,0.1-0.5,0.3-0.7,0.5c-0.1,0.1-0.3,0.2-0.4,0.3
	c-0.2,0.1-0.3,0.2-0.5,0.3c-0.1-0.2-0.3-0.3-0.4-0.5c0,0-0.1-0.1-0.1-0.2c-0.1-0.1-0.2-0.3-0.3-0.4c0-0.1-0.1-0.1-0.1-0.2
	c-0.1-0.2-0.2-0.4-0.3-0.6c0,0,0,0,0-0.1c-0.1-0.2-0.2-0.4-0.3-0.7c0-0.1,0-0.1-0.1-0.2c0-0.2-0.1-0.4-0.1-0.5c0-0.1,0-0.1,0-0.2
	c0-0.2-0.1-0.5-0.1-0.8C74.7,60.5,84.9,54.4,100,54.4L100,54.4z M120.3,72.9L120.3,72.9c-0.6,0.4-1.2,0.7-1.8,1
	c-0.1,0-0.2,0.1-0.3,0.1c-0.6,0.3-1.2,0.6-1.9,0.9c-0.1,0-0.2,0.1-0.4,0.1c-0.7,0.3-1.3,0.5-2.1,0.7c-0.1,0-0.2,0.1-0.3,0.1
	c-0.8,0.2-1.5,0.4-2.3,0.6h0c-0.8,0.2-1.6,0.4-2.4,0.5c-0.1,0-0.2,0-0.4,0.1c-0.8,0.1-1.6,0.3-2.4,0.4c-0.2,0-0.3,0-0.5,0
	c-0.8,0.1-1.7,0.2-2.5,0.2c-0.1,0-0.3,0-0.4,0c-0.9,0-1.8,0.1-2.7,0.1c-0.9,0-1.8,0-2.7-0.1c-0.1,0-0.3,0-0.4,0
	c-0.9,0-1.7-0.1-2.5-0.2c-0.2,0-0.3,0-0.5,0c-0.8-0.1-1.6-0.2-2.4-0.4c-0.1,0-0.2,0-0.4-0.1c-0.8-0.1-1.6-0.3-2.4-0.5h-0.1
	c-0.8-0.2-1.5-0.4-2.3-0.6c-0.1,0-0.2-0.1-0.4-0.1c-0.7-0.2-1.4-0.5-2-0.7c-0.1,0-0.3-0.1-0.4-0.2c-0.6-0.3-1.2-0.5-1.8-0.8
	c-0.1,0-0.2-0.1-0.3-0.2c-0.6-0.3-1.1-0.6-1.7-0.9c0,0,0,0-0.1,0C84.4,69.9,91.9,68,100,68S115.5,69.9,120.3,72.9L120.3,72.9z
	 M54.5,117.5c1.5-4.6,11.5-9.9,34.9-11.2c0,0.1,0,0.2,0,0.2c0,0.9,0,1.8-0.1,2.7c0,0.1,0,0.1,0,0.2c0,0.8-0.1,1.6-0.2,2.3
	c0,0.1,0,0.2,0,0.3c-0.3,0-0.6,0-1,0.1c-0.2,0-0.5,0-0.7,0c-0.8,0-1.7,0.1-2.5,0.2c-0.1,0-0.2,0-0.2,0c-0.7,0.1-1.4,0.1-2.1,0.2
	c-0.2,0-0.4,0-0.7,0.1c-0.6,0.1-1.2,0.1-1.8,0.2c-0.1,0-0.3,0-0.5,0.1c-0.7,0.1-1.4,0.2-2,0.3c-0.2,0-0.3,0-0.5,0.1
	c-0.5,0.1-1,0.2-1.5,0.3c-0.2,0-0.4,0.1-0.5,0.1c-0.6,0.1-1.1,0.2-1.7,0.3c0,0-0.1,0-0.1,0c-0.6,0.1-1.1,0.3-1.7,0.4
	c-0.2,0-0.3,0.1-0.5,0.1c-0.4,0.1-0.8,0.2-1.2,0.3c-0.1,0-0.3,0.1-0.4,0.1c-0.5,0.1-1,0.3-1.4,0.4c-0.1,0-0.2,0.1-0.3,0.1
	c-0.4,0.1-0.7,0.2-1.1,0.4c-0.1,0-0.3,0.1-0.4,0.1c-0.3,0.1-0.7,0.3-1,0.4c-0.1,0-0.1,0-0.2,0.1c-0.4,0.2-0.7,0.3-1.1,0.5
	c-0.1,0-0.2,0.1-0.3,0.1c-0.3,0.1-0.5,0.2-0.8,0.4c-0.1,0-0.2,0.1-0.3,0.1c-0.3,0.2-0.6,0.3-0.9,0.5c0,0-0.1,0-0.1,0.1
	c-0.2,0.1-0.5,0.3-0.7,0.4c-0.1,0-0.2,0.1-0.2,0.2c-0.2,0.1-0.4,0.3-0.6,0.4c-0.1,0-0.1,0.1-0.2,0.1c-0.2,0.2-0.4,0.3-0.6,0.5
	c-0.1,0-0.1,0.1-0.2,0.1c-0.1,0.1-0.3,0.2-0.4,0.4c-0.1,0-0.1,0.1-0.2,0.2c-0.2,0.1-0.3,0.3-0.4,0.4c0,0-0.1,0.1-0.1,0.1
	c-0.1,0.1-0.3,0.3-0.4,0.4c0,0-0.1,0.1-0.1,0.2c-0.1,0.1-0.2,0.2-0.3,0.3c0,0-0.1,0.1-0.1,0.1c-0.1,0.1-0.2,0.3-0.3,0.4
	c0,0-0.1,0.1-0.1,0.1c0,0.1-0.1,0.1-0.1,0.2c0,0,0,0,0,0c0,0-0.1-0.1-0.2-0.1c-0.2-0.2-0.3-0.3-0.5-0.5c-0.1-0.1-0.1-0.1-0.2-0.2
	c-0.1-0.2-0.3-0.3-0.4-0.5c0-0.1-0.1-0.1-0.1-0.2c-0.1-0.2-0.3-0.4-0.4-0.6c0,0,0-0.1-0.1-0.1c-0.1-0.2-0.2-0.3-0.2-0.5
	c0-0.1,0-0.1-0.1-0.2c0-0.2-0.1-0.3-0.1-0.5c0,0,0-0.1,0-0.2c0-0.2,0-0.4,0-0.6L54.5,117.5L54.5,117.5z M88.4,115.7
	c-0.2,0.6-0.3,1.2-0.5,1.8c0,0.1-0.1,0.3-0.2,0.4c-0.2,0.4-0.3,0.9-0.5,1.2c-0.1,0.2-0.2,0.4-0.3,0.6c-0.2,0.3-0.3,0.7-0.5,1
	c-0.1,0.2-0.2,0.4-0.3,0.5c-0.2,0.3-0.4,0.6-0.6,0.8c-0.1,0.2-0.2,0.3-0.4,0.5c-0.2,0.2-0.4,0.5-0.6,0.7c-0.1,0.1-0.3,0.3-0.4,0.4
	c-0.2,0.2-0.5,0.4-0.8,0.7c-0.1,0.1-0.2,0.2-0.4,0.3c-0.4,0.3-0.8,0.6-1.3,0.8c-0.5,0.2-0.9,0.4-1.4,0.6c-0.2,0.1-0.3,0.1-0.5,0.2
	c-0.3,0.1-0.6,0.2-1,0.3c-0.2,0.1-0.4,0.1-0.6,0.2c-0.3,0.1-0.6,0.2-0.9,0.2c-0.2,0-0.4,0.1-0.6,0.1c-0.3,0.1-0.6,0.1-0.9,0.2
	c-0.2,0-0.4,0.1-0.7,0.1c-0.3,0-0.6,0.1-0.9,0.1c-0.2,0-0.4,0-0.7,0c-0.3,0-0.6,0-0.9,0c-0.2,0-0.4,0-0.7,0c-0.3,0-0.6,0-0.9,0
	c-0.2,0-0.4,0-0.7,0c-0.3,0-0.6,0-0.9-0.1c-0.2,0-0.4,0-0.6-0.1c-0.3,0-0.6-0.1-0.9-0.1c-0.2,0-0.4-0.1-0.6-0.1
	c-0.3,0-0.6-0.1-0.9-0.2c-0.2,0-0.4-0.1-0.6-0.1c-0.3-0.1-0.7-0.2-1-0.2c-0.1,0-0.3-0.1-0.4-0.1c-0.9-0.3-1.8-0.6-2.7-0.9
	c-0.1-0.1-0.3-0.1-0.4-0.2c-0.3-0.1-0.6-0.2-0.8-0.4c-0.2-0.1-0.3-0.2-0.5-0.2c-0.2-0.1-0.4-0.2-0.5-0.3
	C61.4,122.4,67.4,117,88.4,115.7L88.4,115.7z M53.2,124.4c0.9,0.9,1.9,1.8,3.1,2.6c6.7,4.4,18.1,6.4,27,1.8c0.6-0.3,1.2-0.7,1.7-1.1
	c3.9-2.7,6.4-7.3,7.4-13.6c0.5-2.9,0.7-6.2,0.5-9.8c-0.2-5.4-1.1-9.5-1.1-9.7c-0.2-0.9-0.9-1.5-1.8-1.5c-7.7,0-13.3-4.2-16.7-7.7
	c-1.9-2-2.6-4.8-1.9-7.5l1.6-5.9c0.6,0.8,1.3,1.5,2.1,2.2c5.2,4.5,14.5,7.2,24.7,7.2c1.3,0,2.5,0,3.8-0.1c8.7-0.6,16.3-3.1,20.9-7.1
	c0.8-0.7,1.5-1.4,2.1-2.2l1.6,5.9c0.7,2.7,0,5.5-1.9,7.5c-3.3,3.5-8.9,7.7-16.7,7.7c-0.9,0-1.6,0.6-1.8,1.5c0,0.2-0.9,4.3-1.1,9.7
	c-0.1,3.6,0,6.8,0.5,9.8c0.1,0.9,0.3,1.8,0.5,2.6c1.5,5.8,4.4,9.9,8.6,12.1c0.4,0.2,0.8,0.4,1.3,0.6c0.1,0.1,0.3,0.1,0.4,0.2
	c0.3,0.1,0.6,0.2,0.9,0.3c0.2,0.1,0.4,0.1,0.5,0.2c0.3,0.1,0.5,0.2,0.8,0.3c0.2,0.1,0.4,0.1,0.6,0.2c0.3,0.1,0.5,0.1,0.8,0.2
	c0.2,0,0.4,0.1,0.6,0.1c0.3,0.1,0.5,0.1,0.8,0.2c0.2,0,0.4,0.1,0.6,0.1c0.3,0,0.5,0.1,0.8,0.1c0.2,0,0.4,0,0.6,0.1
	c0.3,0,0.6,0,0.8,0.1c0.2,0,0.4,0,0.6,0c0.3,0,0.6,0,0.9,0c0.1,0,0.2,0,0.4,0c0,0,0.1,0,0.2,0c0.8,0,1.5,0,2.3-0.1
	c0.1,0,0.2,0,0.4,0c0.8-0.1,1.6-0.2,2.4-0.3c0.1,0,0.2,0,0.3-0.1c0.8-0.1,1.6-0.3,2.4-0.6c0.1,0,0.1,0,0.2-0.1
	c0.8-0.2,1.7-0.5,2.5-0.8c0.3-0.1,0.7-0.2,1-0.4c0.5-0.2,1-0.4,1.4-0.6c0.2-0.1,0.5-0.2,0.7-0.3c0.9-0.4,1.6-0.9,2.3-1.3h0
	c0.4-0.3,0.8-0.6,1.2-0.9c0.2-0.2,0.4-0.3,0.6-0.5c0.3-0.3,0.6-0.6,0.9-0.9c0,0,0.1-0.1,0.1-0.1l0.9,4.7c-0.5,2-5.4,16.5-47.6,16.5
	S52.9,131,52.4,129.1L53.2,124.4L53.2,124.4z"/>
</svg>
