<?xml version="1.0" encoding="utf-8"?>
<!-- Generator: Adobe Illustrator 27.8.1, SVG Export Plug-In . SVG Version: 6.00 Build 0)  -->
<svg version="1.1" id="Layer_1" xmlns="http://www.w3.org/2000/svg" xmlns:xlink="http://www.w3.org/1999/xlink" x="0px" y="0px"
	 viewBox="0 0 200 200" style="enable-background:new 0 0 200 200;" xml:space="preserve">
<style type="text/css">
	.st0{fill:none;stroke:#000000;stroke-width:3;stroke-miterlimit:10;}
	.st1{fill-rule:evenodd;clip-rule:evenodd;fill:#9FA1A2;}
	.st2{fill-rule:evenodd;clip-rule:evenodd;fill:#4A4D4F;}
	.st3{fill-rule:evenodd;clip-rule:evenodd;fill:#737577;}
	.st4{fill-rule:evenodd;clip-rule:evenodd;fill:#24272A;}
</style>
<g>
	<text transform="matrix(1 0 0 1 1772.8145 243.1777)"><tspan x="0" y="0" style="font-family:'Moderat-Bold'; font-size:27.4548px; letter-spacing:1;">FAST</tspan><tspan x="-42.4" y="32.9" style="font-family:'Moderat-Bold'; font-size:27.4548px; letter-spacing:1;">RECHARGE</tspan></text>
</g>
<g>
	<text transform="matrix(1 0 0 1 1564.6396 569.5918)"><tspan x="0" y="0" style="font-family:'Moderat-Bold'; font-size:27.4548px; letter-spacing:1;">BODY SAFE</tspan><tspan x="12.9" y="32.9" style="font-family:'Moderat-Bold'; font-size:27.4548px; letter-spacing:1;">SILICONE</tspan></text>
</g>
<g>
	<path d="M1804.2,869.5v-46.2h-16.6l23.7-67.6v42.1h15L1804.2,869.5z M1792.2,820h15.2v27.6l14.3-46.5H1808v-26.1L1792.2,820z"/>
	<path d="M1807,897.6c-47.2,0-85.6-38.4-85.6-85.6c0-47.2,38.4-85.6,85.6-85.6c47.2,0,85.6,38.4,85.6,85.6
		C1892.6,859.2,1854.2,897.6,1807,897.6z M1807,734.6c-42.7,0-77.4,34.7-77.4,77.4c0,42.7,34.7,77.3,77.4,77.3s77.4-34.7,77.4-77.3
		C1884.4,769.4,1849.7,734.6,1807,734.6z"/>
</g>
<g>
	<path d="M1643,1221.6c-47.2,0-85.6-38.4-85.6-85.6c0-47.2,38.4-85.6,85.6-85.6c47.2,0,85.6,38.4,85.6,85.6
		C1728.6,1183.2,1690.2,1221.6,1643,1221.6z M1643,1058.6c-42.7,0-77.4,34.7-77.4,77.4c0,42.7,34.7,77.4,77.4,77.4
		s77.4-34.7,77.4-77.4C1720.4,1093.3,1685.7,1058.6,1643,1058.6z"/>
	<g>
		<g>
			<path d="M1643,1188.9c-1.1,0-2-0.9-2-2v-99c0-1.1,0.9-2,2-2c1.1,0,2,0.9,2,2v99C1645,1188,1644.1,1188.9,1643,1188.9z"/>
			<path d="M1643,1161.1c-8.9,0-16.4-5.4-20.1-14.5c-4.9-11.9,0.3-24.6,5.3-34.3c2-3.8,2-3.8,3-5.7c1-1.9,3-5.7,9-17.1l2.8-6.3
				l2.9,6.4c5.9,11.3,7.9,15.1,8.9,17c1,1.9,1,1.9,3,5.7c5,9.7,10.1,22.4,5.3,34.3C1659.4,1155.6,1651.9,1161.1,1643,1161.1z
				 M1643,1092.6c-5.4,10.4-7.3,13.9-8.3,15.7c-1,1.9-1,1.9-3,5.7c-4.6,9-9.3,20.6-5.1,31c3,7.5,9.2,12,16.3,12
				c7.2,0,13.3-4.5,16.3-12c4.2-10.4-0.5-22-5.1-31c-2-3.8-2-3.8-3-5.7C1650.3,1106.5,1648.4,1102.9,1643,1092.6z"/>
		</g>
	</g>
</g>
<g>
	<text transform="matrix(1 0 0 1 907.5566 569.5918)"><tspan x="0" y="0" style="font-family:'Moderat-Bold'; font-size:27.4548px; letter-spacing:1;">1 YEAR</tspan><tspan x="-31.9" y="32.9" style="font-family:'Moderat-Bold'; font-size:27.4548px; letter-spacing:1;">WARRANTY</tspan></text>
</g>
<g>
	<path d="M954,1221.6c-47.2,0-85.6-38.4-85.6-85.6c0-47.2,38.4-85.6,85.6-85.6c47.2,0,85.6,38.4,85.6,85.6
		C1039.6,1183.2,1001.2,1221.6,954,1221.6z M954,1058.6c-42.7,0-77.4,34.7-77.4,77.4c0,42.7,34.7,77.4,77.4,77.4
		c42.7,0,77.4-34.7,77.4-77.4C1031.4,1093.3,996.7,1058.6,954,1058.6z"/>
	<g>
		<path d="M963.6,1169.6h-17.2v-42.7h-13v-14.6h9.3c2.5,0,4.3-1.9,4.3-4.5v-5.5h16.5L963.6,1169.6z M950.5,1165.5h9l-0.1-59h-8.3
			v1.4c0,4.9-3.6,8.6-8.5,8.6h-5.2v6.3h13V1165.5z"/>
	</g>
</g>
<g>
	<path d="M1301,1178.7c-16,0-29-13-29-29c0-15.4,26.2-52.4,27.3-54l1.7-2.3l1.6,2.3c1.1,1.6,27.3,38.6,27.3,54
		C1330,1165.7,1317,1178.7,1301,1178.7z M1301,1100.4c-5.8,8.5-25,37.3-25,49.3c0,13.8,11.2,25,25,25c13.8,0,24.9-11.2,24.9-25
		C1325.9,1137.6,1306.8,1108.8,1301,1100.4z"/>
	<path d="M1301,1221.6c-47.2,0-85.6-38.4-85.6-85.6c0-47.2,38.4-85.6,85.6-85.6c47.2,0,85.6,38.4,85.6,85.6
		C1386.6,1183.2,1348.2,1221.6,1301,1221.6z M1301,1058.6c-42.7,0-77.4,34.7-77.4,77.4c0,42.7,34.7,77.4,77.4,77.4
		c42.7,0,77.4-34.7,77.4-77.4C1378.4,1093.3,1343.7,1058.6,1301,1058.6z"/>
</g>
<g>
	<text transform="matrix(1 0 0 1 1201.2529 569.5918)"><tspan x="0" y="0" style="font-family:'Moderat-Bold'; font-size:27.4548px; letter-spacing:1;">WATERPROOF</tspan><tspan x="45.6" y="32.9" style="font-family:'Moderat-Bold'; font-size:27.4548px; letter-spacing:1;">DESIGN</tspan></text>
</g>
<g>
	<text transform="matrix(1 0 0 1 1383.8242 243.1777)"><tspan x="0" y="0" style="font-family:'Moderat-Bold'; font-size:27.4548px; letter-spacing:1;">POWERFUL</tspan><tspan x="-16" y="32.9" style="font-family:'Moderat-Bold'; font-size:27.4548px; letter-spacing:1;">DUAL MOTOR</tspan></text>
</g>
<g>
	<path d="M1462,897.6c-47.2,0-85.6-38.4-85.6-85.6c0-47.2,38.4-85.6,85.6-85.6c47.2,0,85.6,38.4,85.6,85.6
		C1547.6,859.2,1509.2,897.6,1462,897.6z M1462,734.6c-42.7,0-77.4,34.7-77.4,77.4c0,42.7,34.7,77.4,77.4,77.4
		c42.7,0,77.4-34.7,77.4-77.4C1539.4,769.3,1504.7,734.6,1462,734.6z"/>
	<g>
		<g>
			<path d="M1471.8,845.3H1429v-6.5c0-15.1,8.8-20,16.5-24.4l0.9-0.5c7.6-4.3,14.2-8,14.2-14.9c0-5.3-3.6-8.9-9-8.9
				c-7.3,0-10.8,6.5-10.8,10.9v1.4h-11.7V801c0-8.6,6.1-22.2,22.3-22.2c12.5,0,20.9,7.9,20.9,19.8c0,12.3-9.2,18.1-16,22.3l-1.3,0.8
				c-7.8,4.9-12.8,8.3-13.8,12.5h30.5V845.3z M1431.9,842.4h37V837h-30.6v-1.4c0-6.9,7.1-11.3,15.3-16.4l1.3-0.8
				c6.8-4.3,14.6-9.2,14.6-19.9c0-10.2-7.1-16.9-18-16.9c-13.3,0-18.8,10.4-19.4,17.9h5.9c0.7-5.4,5-12.3,13.6-12.3
				c7,0,11.9,4.9,11.9,11.8c0,8.5-7.9,13.1-15.6,17.4l-0.9,0.5c-7.4,4.2-15,8.5-15,21.9V842.4z"/>
		</g>
		<g>
			<path d="M1486.1,794.5h-0.6l-4.8,7.9h-4.1l6.8-10.9l-6.2-10h4l4.4,7.1h0.5l4.3-7.1h4l-6.2,10l6.8,10.9h-4.1L1486.1,794.5z"/>
		</g>
	</g>
</g>
<g>
	<text transform="matrix(1 0 0 1 279.8188 243.1777)"><tspan x="0" y="0" style="font-family:'Moderat-Bold'; font-size:27.4548px; letter-spacing:1;">COME HITHER</tspan><tspan x="40.9" y="32.9" style="font-family:'Moderat-Bold'; font-size:27.4548px; letter-spacing:1;">MOTION</tspan></text>
</g>
<g>
	<text transform="matrix(1 0 0 1 666.0693 243.1777)"><tspan x="0" y="0" style="font-family:'Moderat-Bold'; font-size:27.4548px; letter-spacing:1;">9 INTENSE</tspan><tspan x="-60.4" y="32.9" style="font-family:'Moderat-Bold'; font-size:27.4548px; letter-spacing:1;">VIBRATION MODES</tspan></text>
</g>
<g>
	<text transform="matrix(1 0 0 1 510.8574 569.5918)"><tspan x="0" y="0" style="font-family:'Moderat-Bold'; font-size:27.4548px; letter-spacing:1;">WHISPER</tspan><tspan x="21.2" y="32.9" style="font-family:'Moderat-Bold'; font-size:27.4548px; letter-spacing:1;">QUITE</tspan></text>
</g>
<g>
	<path d="M578,1221.6c-47.2,0-85.6-38.4-85.6-85.6c0-47.2,38.4-85.6,85.6-85.6c47.2,0,85.6,38.4,85.6,85.6
		C663.6,1183.2,625.2,1221.6,578,1221.6z M578,1058.6c-42.7,0-77.4,34.7-77.4,77.4c0,42.7,34.7,77.4,77.4,77.4
		c42.7,0,77.4-34.7,77.4-77.4C655.4,1093.3,620.7,1058.6,578,1058.6z"/>
	<g>
		<path d="M577.9,1170.9c-0.5,0-0.9-0.1-1.3-0.4l-23.9-17.2h-15c-1.3,0-2.3-1-2.3-2.3v-30c0-1.3,1-2.3,2.3-2.3h15.1l23.9-17.1
			c0.7-0.5,1.6-0.6,2.4-0.2c0.8,0.4,1.2,1.2,1.2,2v65.2c0,0.9-0.5,1.7-1.2,2C578.6,1170.8,578.3,1170.9,577.9,1170.9z M554.2,1148.9
			c0.2,0.1,0.3,0.2,0.5,0.3l20.9,15v-56.2l-20.9,15c-0.4,0.3-0.9,0.4-1.3,0.4h-13.5v25.4h13.5C553.7,1148.7,554,1148.8,554.2,1148.9
			z"/>
		<g>
			<path d="M593.2,1150.9c-0.6,0-1.2-0.2-1.6-0.7c-0.9-0.9-0.9-2.4,0-3.3l25.2-25.2c0.9-0.9,2.4-0.9,3.3,0c0.9,0.9,0.9,2.4,0,3.2
				l-25.2,25.2C594.4,1150.7,593.8,1150.9,593.2,1150.9z"/>
			<path d="M618.4,1150.9c-0.6,0-1.2-0.2-1.6-0.7l-25.2-25.2c-0.9-0.9-0.9-2.4,0-3.2c0.9-0.9,2.4-0.9,3.2,0L620,1147
				c0.9,0.9,0.9,2.4,0,3.3C619.6,1150.7,619,1150.9,618.4,1150.9z"/>
		</g>
	</g>
</g>
<g>
	
		<image style="overflow:visible;" width="388" height="439" xlink:href="9D792A182D8DFCB1.png"  transform="matrix(0.2897 0 0 0.2897 312.3786 747.2645)">
	</image>
	<path d="M378,897.6c-47.2,0-85.6-38.4-85.6-85.6c0-47.2,38.4-85.6,85.6-85.6s85.6,38.4,85.6,85.6
		C463.6,859.2,425.2,897.6,378,897.6z M378,734.6c-42.7,0-77.4,34.7-77.4,77.4c0,42.7,34.7,77.4,77.4,77.4
		c42.7,0,77.4-34.7,77.4-77.4C455.4,769.3,420.7,734.6,378,734.6z"/>
</g>
<g>
	<path d="M736,897.6c-47.2,0-85.6-38.4-85.6-85.6c0-47.2,38.4-85.6,85.6-85.6c47.2,0,85.6,38.4,85.6,85.6
		C821.6,859.2,783.2,897.6,736,897.6z M736,734.6c-42.7,0-77.4,34.7-77.4,77.4c0,42.7,34.7,77.4,77.4,77.4
		c42.7,0,77.4-34.7,77.4-77.4C813.4,769.3,778.7,734.6,736,734.6z"/>
	<g>
		<path d="M697.2,780.8c-0.4,0-0.7-0.2-1-0.5c-0.2-0.3-0.4-0.6-0.4-0.9c0-0.4,0.2-0.7,0.5-1l12.9-11.6c0.6-0.5,1.4-0.5,1.9,0.1
			c0.2,0.3,0.4,0.6,0.4,0.9c0,0.4-0.2,0.7-0.5,1l-12.9,11.6C697.9,780.7,697.5,780.8,697.2,780.8z"/>
		<path d="M722.9,780.8c-0.3,0-0.7-0.1-0.9-0.4l-12.9-11.6c-0.3-0.3-0.4-0.6-0.4-1c0-0.3,0.1-0.7,0.4-0.9c0.5-0.6,1.4-0.6,1.9-0.1
			l12.9,11.6c0.3,0.3,0.5,0.6,0.5,1c0,0.3-0.1,0.7-0.4,0.9C723.7,780.7,723.3,780.8,722.9,780.8z"/>
		<path d="M723.1,780.8c-0.4,0-0.7-0.2-1-0.5c-0.2-0.3-0.4-0.6-0.4-0.9c0-0.4,0.2-0.7,0.5-1l12.9-11.6c0.6-0.5,1.4-0.5,1.9,0.1
			c0.2,0.3,0.4,0.6,0.4,0.9c0,0.4-0.2,0.7-0.5,1l-12.9,11.6C723.8,780.7,723.5,780.8,723.1,780.8z"/>
		<path d="M748.9,780.8c-0.3,0-0.7-0.1-0.9-0.4l-12.9-11.6c-0.3-0.3-0.5-0.6-0.5-1c0-0.3,0.1-0.7,0.4-0.9c0.5-0.6,1.4-0.6,1.9-0.1
			l12.9,11.6c0.3,0.3,0.5,0.6,0.5,1c0,0.3-0.1,0.7-0.4,0.9C749.6,780.7,749.2,780.8,748.9,780.8z"/>
		<path d="M749.1,780.8c-0.4,0-0.7-0.2-1-0.5c-0.2-0.3-0.4-0.6-0.4-0.9c0-0.4,0.2-0.7,0.5-1l12.9-11.6c0.6-0.5,1.4-0.5,1.9,0.1
			c0.2,0.3,0.4,0.6,0.4,0.9c0,0.4-0.2,0.7-0.5,1L750,780.5C749.7,780.7,749.4,780.8,749.1,780.8z"/>
		<path d="M774.8,780.8c-0.3,0-0.7-0.1-0.9-0.4L761,768.9c-0.3-0.3-0.5-0.6-0.5-1c0-0.3,0.1-0.7,0.4-0.9c0.5-0.6,1.4-0.6,1.9-0.1
			l12.9,11.6c0.3,0.3,0.5,0.6,0.5,1c0,0.3-0.1,0.7-0.4,0.9C775.5,780.7,775.2,780.8,774.8,780.8z"/>
	</g>
	<g>
		<path d="M697.2,792.1c-0.4,0-0.7-0.2-1-0.5c-0.2-0.3-0.4-0.6-0.4-0.9c0-0.4,0.2-0.7,0.5-1l12.9-11.6c0.6-0.5,1.4-0.5,1.9,0.1
			c0.2,0.3,0.4,0.6,0.4,0.9c0,0.4-0.2,0.7-0.5,1l-12.9,11.6C697.9,792,697.5,792.1,697.2,792.1z"/>
		<path d="M722.9,792.1c-0.3,0-0.7-0.1-0.9-0.4l-12.9-11.6c-0.3-0.3-0.4-0.6-0.4-1c0-0.3,0.1-0.6,0.4-0.9c0.5-0.6,1.4-0.6,1.9-0.1
			l12.9,11.6c0.3,0.3,0.5,0.6,0.5,1c0,0.3-0.1,0.7-0.4,0.9C723.7,792,723.3,792.1,722.9,792.1z"/>
		<path d="M723.1,792.1c-0.4,0-0.7-0.2-1-0.5c-0.2-0.3-0.4-0.6-0.4-0.9c0-0.4,0.2-0.7,0.5-1l12.9-11.6c0.6-0.5,1.4-0.5,1.9,0.1
			c0.2,0.3,0.4,0.6,0.4,0.9c0,0.4-0.2,0.7-0.5,1l-12.9,11.6C723.8,792,723.5,792.1,723.1,792.1z"/>
		<path d="M748.9,792.1c-0.3,0-0.7-0.1-0.9-0.4l-12.9-11.6c-0.3-0.3-0.5-0.6-0.5-1c0-0.3,0.1-0.6,0.4-0.9c0.5-0.6,1.4-0.6,1.9-0.1
			l12.9,11.6c0.3,0.3,0.5,0.6,0.5,1c0,0.3-0.1,0.7-0.4,0.9C749.6,792,749.2,792.1,748.9,792.1z"/>
		<path d="M749.1,792.1c-0.4,0-0.7-0.2-1-0.5c-0.2-0.3-0.4-0.6-0.4-0.9c0-0.4,0.2-0.7,0.5-1l12.9-11.6c0.6-0.5,1.4-0.5,1.9,0.1
			c0.2,0.3,0.4,0.6,0.4,0.9c0,0.4-0.2,0.7-0.5,1L750,791.8C749.7,792,749.4,792.1,749.1,792.1z"/>
		<path d="M774.8,792.1c-0.3,0-0.7-0.1-0.9-0.4L761,780.2c-0.3-0.3-0.5-0.6-0.5-1c0-0.3,0.1-0.6,0.4-0.9c0.5-0.6,1.4-0.6,1.9-0.1
			l12.9,11.6c0.3,0.3,0.5,0.6,0.5,1c0,0.3-0.1,0.7-0.4,0.9C775.5,792,775.2,792.1,774.8,792.1z"/>
	</g>
	<g>
		<path d="M697.2,803.4c-0.4,0-0.7-0.2-1-0.5c-0.2-0.3-0.4-0.6-0.4-0.9c0-0.4,0.2-0.8,0.5-1l12.9-11.6c0.6-0.5,1.4-0.5,1.9,0.1
			c0.2,0.3,0.4,0.6,0.4,0.9c0,0.4-0.2,0.8-0.5,1l-12.9,11.6C697.9,803.3,697.5,803.4,697.2,803.4z"/>
		<path d="M722.9,803.4c-0.3,0-0.7-0.1-0.9-0.4l-12.9-11.6c-0.3-0.3-0.4-0.6-0.4-1c0-0.3,0.1-0.7,0.4-0.9c0.5-0.6,1.4-0.6,1.9-0.1
			l12.9,11.6c0.3,0.3,0.5,0.6,0.5,1c0,0.3-0.1,0.7-0.4,0.9C723.7,803.3,723.3,803.4,722.9,803.4z"/>
		<path d="M723.1,803.4c-0.4,0-0.7-0.2-1-0.5c-0.2-0.3-0.4-0.6-0.4-0.9c0-0.4,0.2-0.8,0.5-1l12.9-11.6c0.6-0.5,1.4-0.5,1.9,0.1
			c0.2,0.3,0.4,0.6,0.4,0.9c0,0.4-0.2,0.8-0.5,1l-12.9,11.6C723.8,803.3,723.5,803.4,723.1,803.4z"/>
		<path d="M748.9,803.4c-0.3,0-0.7-0.1-0.9-0.4l-12.9-11.6c-0.3-0.3-0.5-0.6-0.5-1c0-0.3,0.1-0.7,0.4-0.9c0.5-0.6,1.4-0.6,1.9-0.1
			l12.9,11.6c0.3,0.3,0.5,0.6,0.5,1c0,0.3-0.1,0.7-0.4,0.9C749.6,803.3,749.2,803.4,748.9,803.4z"/>
		<path d="M749.1,803.4c-0.4,0-0.7-0.2-1-0.5c-0.2-0.3-0.4-0.6-0.4-0.9c0-0.4,0.2-0.8,0.5-1l12.9-11.6c0.6-0.5,1.4-0.5,1.9,0.1
			c0.2,0.3,0.4,0.6,0.4,0.9c0,0.4-0.2,0.8-0.5,1L750,803.1C749.7,803.3,749.4,803.4,749.1,803.4z"/>
		<path d="M774.8,803.4c-0.3,0-0.7-0.1-0.9-0.4L761,791.5c-0.3-0.3-0.5-0.6-0.5-1c0-0.3,0.1-0.7,0.4-0.9c0.5-0.6,1.4-0.6,1.9-0.1
			l12.9,11.6c0.3,0.3,0.5,0.6,0.5,1c0,0.3-0.1,0.7-0.4,0.9C775.5,803.3,775.2,803.4,774.8,803.4z"/>
	</g>
	<g>
		<path class="st0" d="M718.6,832.8c0-11.6,9.2-18.4,18.9-18.4c9.8,0,19.1,6.9,19.1,18.1c0,4.4-1.4,8-2.6,10.5
			c-2.8,6.1-11.6,21.4-15.7,28.4h-12.8l12-20.6C726.8,850.7,718.6,843.7,718.6,832.8z M730,832.8c0,5.7,4.5,7.5,7.6,7.5
			c3.1,0,7.6-1.8,7.6-7.5c0-5.5-4.1-7.6-7.6-7.6C734,825.2,730,827.3,730,832.8z"/>
	</g>
</g>
<g>
	<text transform="matrix(1 0 0 1 1007.708 243.1777)"><tspan x="0" y="0" style="font-family:'Moderat-Bold'; font-size:27.4548px; letter-spacing:1;">3 COME HITHER</tspan><tspan x="59.5" y="32.9" style="font-family:'Moderat-Bold'; font-size:27.4548px; letter-spacing:1;">MODES</tspan></text>
</g>
<g>
	<path d="M1117,897.6c-47.2,0-85.6-38.4-85.6-85.6c0-47.2,38.4-85.6,85.6-85.6c47.2,0,85.6,38.4,85.6,85.6
		C1202.6,859.2,1164.2,897.6,1117,897.6z M1117,734.6c-42.7,0-77.4,34.7-77.4,77.4c0,42.7,34.7,77.4,77.4,77.4
		c42.7,0,77.4-34.7,77.4-77.4C1194.4,769.3,1159.7,734.6,1117,734.6z"/>
	<g>
		<path d="M1165.9,786.2c-0.7,0-1.4-0.4-1.8-1c-9.7-16.9-27.7-27.4-47.1-27.4c-13.3,0-26.1,4.9-36.1,13.8c-0.8,0.8-2.1,0.7-2.9-0.2
			c-0.8-0.8-0.7-2.1,0.2-2.9c10.7-9.6,24.5-14.8,38.8-14.8c20.9,0,40.3,11.3,50.7,29.5c0.6,1,0.2,2.2-0.8,2.8
			C1166.6,786.1,1166.3,786.2,1165.9,786.2z"/>
		<g>
			<polygon points="1087,771 1068.1,784.1 1077.9,763.3 			"/>
		</g>
	</g>
	<g>
		<path d="M1117,870.3c-20.8,0-40.2-11.2-50.6-29.3c-0.6-1-0.2-2.2,0.8-2.8c1-0.6,2.2-0.2,2.8,0.8c9.6,16.8,27.7,27.3,47,27.3
			c13.3,0,26-4.9,36-13.7c0.8-0.8,2.1-0.7,2.9,0.2c0.8,0.9,0.7,2.1-0.2,2.9C1145,865.1,1131.3,870.3,1117,870.3z"/>
		<g>
			<polygon points="1156,860.8 1165.8,840 1146.9,853.1 			"/>
		</g>
	</g>
	<g>
		<path d="M1117.2,834.8c-9.6,0-16-7.7-16-14.8v-1.4h11.1l0.1,1.2c0.2,1.8,1.5,4,4.7,4c1,0,4.3-0.3,4.3-3.8c0-1.3-0.5-4.4-5.1-4.4
			h-4.2v-9.6h3.9c3.7,0,4.2-2.2,4.2-3.4c0-2.3-2.1-2.9-3.3-2.9c-1.3,0-2.9,0.5-3.2,2.7l-0.1,1.2h-10.9v-1.4c0-7.4,6.2-13,14.5-13
			c8,0,14,5.4,14,12.5c0,3.4-1.3,6.6-3.5,8.6c3.1,2,5.1,5.8,5.1,10.2C1132.8,828.5,1126,834.8,1117.2,834.8z M1104,821.4
			c0.8,5.4,5.9,10.7,13.2,10.7c7.2,0,12.9-5.1,12.9-11.6c0-4-2-7.4-5-8.5l-0.9-0.3v-2.3l0.7-0.4c2.1-1.2,3.6-4.1,3.6-7.3
			c0-5.6-4.8-9.8-11.3-9.8c-5.3,0-10.9,3.1-11.7,8.8h5.7c0.9-2.9,3.4-4,5.6-4c3,0,6.1,1.9,6.1,5.7c0,2.8-1.8,6.2-7,6.2h-1.2v4.2h1.5
			c5.8,0,7.9,3.9,7.9,7.2c0,3.9-2.8,6.6-7,6.6c-4,0-6.4-2.5-7.2-5.2H1104z"/>
	</g>
</g>
<g>
	<path d="M1804.2,157.5v-46.2h-16.6l23.7-67.6v42.1h15L1804.2,157.5z M1792.2,108h15.2v27.6l14.3-46.5H1808V63.1L1792.2,108z"/>
	<path d="M1807,185.6c-47.2,0-85.6-38.4-85.6-85.6c0-47.2,38.4-85.6,85.6-85.6c47.2,0,85.6,38.4,85.6,85.6
		C1892.6,147.2,1854.2,185.6,1807,185.6z M1807,22.6c-42.7,0-77.4,34.7-77.4,77.4c0,42.7,34.7,77.3,77.4,77.3s77.4-34.7,77.4-77.3
		C1884.4,57.4,1849.7,22.6,1807,22.6z"/>
</g>
<g>
	<path d="M1643,509.6c-47.2,0-85.6-38.4-85.6-85.6c0-47.2,38.4-85.6,85.6-85.6c47.2,0,85.6,38.4,85.6,85.6
		C1728.6,471.2,1690.2,509.6,1643,509.6z M1643,346.6c-42.7,0-77.4,34.7-77.4,77.4c0,42.7,34.7,77.4,77.4,77.4s77.4-34.7,77.4-77.4
		C1720.4,381.3,1685.7,346.6,1643,346.6z"/>
	<g>
		<g>
			<path d="M1643,476.9c-1.1,0-2-0.9-2-2v-99c0-1.1,0.9-2,2-2c1.1,0,2,0.9,2,2v99C1645,476,1644.1,476.9,1643,476.9z"/>
			<path d="M1643,449.1c-8.9,0-16.4-5.4-20.1-14.5c-4.9-11.9,0.3-24.6,5.3-34.3c2-3.8,2-3.8,3-5.7c1-1.9,3-5.7,9-17.1l2.8-6.3
				l2.9,6.4c5.9,11.3,7.9,15.1,8.9,17c1,1.9,1,1.9,3,5.7c5,9.7,10.1,22.4,5.3,34.3C1659.4,443.6,1651.9,449.1,1643,449.1z
				 M1643,380.6c-5.4,10.4-7.3,13.9-8.3,15.7c-1,1.9-1,1.9-3,5.7c-4.6,9-9.3,20.6-5.1,31c3,7.5,9.2,12,16.3,12
				c7.2,0,13.3-4.5,16.3-12c4.2-10.4-0.5-22-5.1-31c-2-3.8-2-3.8-3-5.7C1650.3,394.5,1648.4,390.9,1643,380.6z"/>
		</g>
	</g>
</g>
<g>
	<path d="M954,509.6c-47.2,0-85.6-38.4-85.6-85.6c0-47.2,38.4-85.6,85.6-85.6c47.2,0,85.6,38.4,85.6,85.6
		C1039.6,471.2,1001.2,509.6,954,509.6z M954,346.6c-42.7,0-77.4,34.7-77.4,77.4c0,42.7,34.7,77.4,77.4,77.4
		c42.7,0,77.4-34.7,77.4-77.4C1031.4,381.3,996.7,346.6,954,346.6z"/>
	<g>
		<path d="M963.6,457.6h-17.2v-42.7h-13v-14.6h9.3c2.5,0,4.3-1.9,4.3-4.5v-5.5h16.5L963.6,457.6z M950.5,453.5h9l-0.1-59h-8.3v1.4
			c0,4.9-3.6,8.6-8.5,8.6h-5.2v6.3h13V453.5z"/>
	</g>
</g>
<g>
	<path d="M1301,466.7c-16,0-29-13-29-29c0-15.4,26.2-52.4,27.3-54l1.7-2.3l1.6,2.3c1.1,1.6,27.3,38.6,27.3,54
		C1330,453.7,1317,466.7,1301,466.7z M1301,388.4c-5.8,8.5-25,37.3-25,49.3c0,13.8,11.2,25,25,25c13.8,0,24.9-11.2,24.9-25
		C1325.9,425.6,1306.8,396.8,1301,388.4z"/>
	<path d="M1301,509.6c-47.2,0-85.6-38.4-85.6-85.6c0-47.2,38.4-85.6,85.6-85.6c47.2,0,85.6,38.4,85.6,85.6
		C1386.6,471.2,1348.2,509.6,1301,509.6z M1301,346.6c-42.7,0-77.4,34.7-77.4,77.4c0,42.7,34.7,77.4,77.4,77.4
		c42.7,0,77.4-34.7,77.4-77.4C1378.4,381.3,1343.7,346.6,1301,346.6z"/>
</g>
<g>
	<path d="M1462,185.6c-47.2,0-85.6-38.4-85.6-85.6c0-47.2,38.4-85.6,85.6-85.6c47.2,0,85.6,38.4,85.6,85.6
		C1547.6,147.2,1509.2,185.6,1462,185.6z M1462,22.6c-42.7,0-77.4,34.7-77.4,77.4c0,42.7,34.7,77.4,77.4,77.4
		c42.7,0,77.4-34.7,77.4-77.4C1539.4,57.3,1504.7,22.6,1462,22.6z"/>
	<g>
		<g>
			<path d="M1471.8,133.3H1429v-6.5c0-15.1,8.8-20,16.5-24.4l0.9-0.5c7.6-4.3,14.2-8,14.2-14.9c0-5.3-3.6-8.9-9-8.9
				c-7.3,0-10.8,6.5-10.8,10.9v1.4h-11.7V89c0-8.6,6.1-22.2,22.3-22.2c12.5,0,20.9,7.9,20.9,19.8c0,12.3-9.2,18.1-16,22.3l-1.3,0.8
				c-7.8,4.9-12.8,8.3-13.8,12.5h30.5V133.3z M1431.9,130.4h37V125h-30.6v-1.4c0-6.9,7.1-11.3,15.3-16.4l1.3-0.8
				c6.8-4.3,14.6-9.2,14.6-19.9c0-10.2-7.1-16.9-18-16.9c-13.3,0-18.8,10.4-19.4,17.9h5.9c0.7-5.4,5-12.3,13.6-12.3
				c7,0,11.9,4.9,11.9,11.8c0,8.5-7.9,13.1-15.6,17.4l-0.9,0.5c-7.4,4.2-15,8.5-15,21.9V130.4z"/>
		</g>
		<g>
			<path d="M1486.1,82.5h-0.6l-4.8,7.9h-4.1l6.8-10.9l-6.2-10h4l4.4,7.1h0.5l4.3-7.1h4l-6.2,10l6.8,10.9h-4.1L1486.1,82.5z"/>
		</g>
	</g>
</g>
<g>
	<path d="M578,509.6c-47.2,0-85.6-38.4-85.6-85.6c0-47.2,38.4-85.6,85.6-85.6c47.2,0,85.6,38.4,85.6,85.6
		C663.6,471.2,625.2,509.6,578,509.6z M578,346.6c-42.7,0-77.4,34.7-77.4,77.4c0,42.7,34.7,77.4,77.4,77.4
		c42.7,0,77.4-34.7,77.4-77.4C655.4,381.3,620.7,346.6,578,346.6z"/>
	<g>
		<path d="M577.9,458.9c-0.5,0-0.9-0.1-1.3-0.4l-23.9-17.2h-15c-1.3,0-2.3-1-2.3-2.3v-30c0-1.3,1-2.3,2.3-2.3h15.1l23.9-17.1
			c0.7-0.5,1.6-0.6,2.4-0.2c0.8,0.4,1.2,1.2,1.2,2v65.2c0,0.9-0.5,1.7-1.2,2C578.6,458.8,578.3,458.9,577.9,458.9z M554.2,436.9
			c0.2,0.1,0.3,0.2,0.5,0.3l20.9,15v-56.2l-20.9,15c-0.4,0.3-0.9,0.4-1.3,0.4h-13.5v25.4h13.5C553.7,436.7,554,436.8,554.2,436.9z"
			/>
		<g>
			<path d="M593.2,438.9c-0.6,0-1.2-0.2-1.6-0.7c-0.9-0.9-0.9-2.4,0-3.3l25.2-25.2c0.9-0.9,2.4-0.9,3.3,0c0.9,0.9,0.9,2.4,0,3.2
				l-25.2,25.2C594.4,438.7,593.8,438.9,593.2,438.9z"/>
			<path d="M618.4,438.9c-0.6,0-1.2-0.2-1.6-0.7L591.6,413c-0.9-0.9-0.9-2.4,0-3.2c0.9-0.9,2.4-0.9,3.2,0L620,435
				c0.9,0.9,0.9,2.4,0,3.3C619.6,438.7,619,438.9,618.4,438.9z"/>
		</g>
	</g>
</g>
<path d="M100,185.6c-47.2,0-85.6-38.4-85.6-85.6c0-47.2,38.4-85.6,85.6-85.6s85.6,38.4,85.6,85.6C185.6,147.2,147.2,185.6,100,185.6
	z M100,22.6c-42.7,0-77.4,34.7-77.4,77.4c0,42.7,34.7,77.4,77.4,77.4c42.7,0,77.4-34.7,77.4-77.4C177.4,57.3,142.7,22.6,100,22.6z"
	/>
<g>
	<path d="M736,185.6c-47.2,0-85.6-38.4-85.6-85.6c0-47.2,38.4-85.6,85.6-85.6c47.2,0,85.6,38.4,85.6,85.6
		C821.6,147.2,783.2,185.6,736,185.6z M736,22.6c-42.7,0-77.4,34.7-77.4,77.4c0,42.7,34.7,77.4,77.4,77.4
		c42.7,0,77.4-34.7,77.4-77.4C813.4,57.3,778.7,22.6,736,22.6z"/>
	<g>
		<path d="M697.2,68.8c-0.4,0-0.7-0.2-1-0.5c-0.2-0.3-0.4-0.6-0.4-0.9c0-0.4,0.2-0.7,0.5-1l12.9-11.6c0.6-0.5,1.4-0.5,1.9,0.1
			c0.2,0.3,0.4,0.6,0.4,0.9c0,0.4-0.2,0.7-0.5,1l-12.9,11.6C697.9,68.7,697.5,68.8,697.2,68.8z"/>
		<path d="M722.9,68.8c-0.3,0-0.7-0.1-0.9-0.4l-12.9-11.6c-0.3-0.3-0.4-0.6-0.4-1c0-0.3,0.1-0.7,0.4-0.9c0.5-0.6,1.4-0.6,1.9-0.1
			l12.9,11.6c0.3,0.3,0.5,0.6,0.5,1c0,0.3-0.1,0.7-0.4,0.9C723.7,68.7,723.3,68.8,722.9,68.8z"/>
		<path d="M723.1,68.8c-0.4,0-0.7-0.2-1-0.5c-0.2-0.3-0.4-0.6-0.4-0.9c0-0.4,0.2-0.7,0.5-1l12.9-11.6c0.6-0.5,1.4-0.5,1.9,0.1
			c0.2,0.3,0.4,0.6,0.4,0.9c0,0.4-0.2,0.7-0.5,1l-12.9,11.6C723.8,68.7,723.5,68.8,723.1,68.8z"/>
		<path d="M748.9,68.8c-0.3,0-0.7-0.1-0.9-0.4l-12.9-11.6c-0.3-0.3-0.5-0.6-0.5-1c0-0.3,0.1-0.7,0.4-0.9c0.5-0.6,1.4-0.6,1.9-0.1
			l12.9,11.6c0.3,0.3,0.5,0.6,0.5,1c0,0.3-0.1,0.7-0.4,0.9C749.6,68.7,749.2,68.8,748.9,68.8z"/>
		<path d="M749.1,68.8c-0.4,0-0.7-0.2-1-0.5c-0.2-0.3-0.4-0.6-0.4-0.9c0-0.4,0.2-0.7,0.5-1L761,54.8c0.6-0.5,1.4-0.5,1.9,0.1
			c0.2,0.3,0.4,0.6,0.4,0.9c0,0.4-0.2,0.7-0.5,1L750,68.5C749.7,68.7,749.4,68.8,749.1,68.8z"/>
		<path d="M774.8,68.8c-0.3,0-0.7-0.1-0.9-0.4L761,56.9c-0.3-0.3-0.5-0.6-0.5-1c0-0.3,0.1-0.7,0.4-0.9c0.5-0.6,1.4-0.6,1.9-0.1
			l12.9,11.6c0.3,0.3,0.5,0.6,0.5,1c0,0.3-0.1,0.7-0.4,0.9C775.5,68.7,775.2,68.8,774.8,68.8z"/>
	</g>
	<g>
		<path d="M697.2,80.1c-0.4,0-0.7-0.2-1-0.5c-0.2-0.3-0.4-0.6-0.4-0.9c0-0.4,0.2-0.7,0.5-1l12.9-11.6c0.6-0.5,1.4-0.5,1.9,0.1
			c0.2,0.3,0.4,0.6,0.4,0.9c0,0.4-0.2,0.7-0.5,1l-12.9,11.6C697.9,80,697.5,80.1,697.2,80.1z"/>
		<path d="M722.9,80.1c-0.3,0-0.7-0.1-0.9-0.4l-12.9-11.6c-0.3-0.3-0.4-0.6-0.4-1c0-0.3,0.1-0.6,0.4-0.9c0.5-0.6,1.4-0.6,1.9-0.1
			l12.9,11.6c0.3,0.3,0.5,0.6,0.5,1c0,0.3-0.1,0.7-0.4,0.9C723.7,80,723.3,80.1,722.9,80.1z"/>
		<path d="M723.1,80.1c-0.4,0-0.7-0.2-1-0.5c-0.2-0.3-0.4-0.6-0.4-0.9c0-0.4,0.2-0.7,0.5-1l12.9-11.6c0.6-0.5,1.4-0.5,1.9,0.1
			c0.2,0.3,0.4,0.6,0.4,0.9c0,0.4-0.2,0.7-0.5,1l-12.9,11.6C723.8,80,723.5,80.1,723.1,80.1z"/>
		<path d="M748.9,80.1c-0.3,0-0.7-0.1-0.9-0.4l-12.9-11.6c-0.3-0.3-0.5-0.6-0.5-1c0-0.3,0.1-0.6,0.4-0.9c0.5-0.6,1.4-0.6,1.9-0.1
			l12.9,11.6c0.3,0.3,0.5,0.6,0.5,1c0,0.3-0.1,0.7-0.4,0.9C749.6,80,749.2,80.1,748.9,80.1z"/>
		<path d="M749.1,80.1c-0.4,0-0.7-0.2-1-0.5c-0.2-0.3-0.4-0.6-0.4-0.9c0-0.4,0.2-0.7,0.5-1L761,66.1c0.6-0.5,1.4-0.5,1.9,0.1
			c0.2,0.3,0.4,0.6,0.4,0.9c0,0.4-0.2,0.7-0.5,1L750,79.8C749.7,80,749.4,80.1,749.1,80.1z"/>
		<path d="M774.8,80.1c-0.3,0-0.7-0.1-0.9-0.4L761,68.2c-0.3-0.3-0.5-0.6-0.5-1c0-0.3,0.1-0.6,0.4-0.9c0.5-0.6,1.4-0.6,1.9-0.1
			l12.9,11.6c0.3,0.3,0.5,0.6,0.5,1c0,0.3-0.1,0.7-0.4,0.9C775.5,80,775.2,80.1,774.8,80.1z"/>
	</g>
	<g>
		<path d="M697.2,91.4c-0.4,0-0.7-0.2-1-0.5c-0.2-0.3-0.4-0.6-0.4-0.9c0-0.4,0.2-0.8,0.5-1l12.9-11.6c0.6-0.5,1.4-0.5,1.9,0.1
			c0.2,0.3,0.4,0.6,0.4,0.9c0,0.4-0.2,0.8-0.5,1l-12.9,11.6C697.9,91.3,697.5,91.4,697.2,91.4z"/>
		<path d="M722.9,91.4c-0.3,0-0.7-0.1-0.9-0.4l-12.9-11.6c-0.3-0.3-0.4-0.6-0.4-1c0-0.3,0.1-0.7,0.4-0.9c0.5-0.6,1.4-0.6,1.9-0.1
			l12.9,11.6c0.3,0.3,0.5,0.6,0.5,1c0,0.3-0.1,0.7-0.4,0.9C723.7,91.3,723.3,91.4,722.9,91.4z"/>
		<path d="M723.1,91.4c-0.4,0-0.7-0.2-1-0.5c-0.2-0.3-0.4-0.6-0.4-0.9c0-0.4,0.2-0.8,0.5-1l12.9-11.6c0.6-0.5,1.4-0.5,1.9,0.1
			c0.2,0.3,0.4,0.6,0.4,0.9c0,0.4-0.2,0.8-0.5,1l-12.9,11.6C723.8,91.3,723.5,91.4,723.1,91.4z"/>
		<path d="M748.9,91.4c-0.3,0-0.7-0.1-0.9-0.4l-12.9-11.6c-0.3-0.3-0.5-0.6-0.5-1c0-0.3,0.1-0.7,0.4-0.9c0.5-0.6,1.4-0.6,1.9-0.1
			l12.9,11.6c0.3,0.3,0.5,0.6,0.5,1c0,0.3-0.1,0.7-0.4,0.9C749.6,91.3,749.2,91.4,748.9,91.4z"/>
		<path d="M749.1,91.4c-0.4,0-0.7-0.2-1-0.5c-0.2-0.3-0.4-0.6-0.4-0.9c0-0.4,0.2-0.8,0.5-1L761,77.4c0.6-0.5,1.4-0.5,1.9,0.1
			c0.2,0.3,0.4,0.6,0.4,0.9c0,0.4-0.2,0.8-0.5,1L750,91.1C749.7,91.3,749.4,91.4,749.1,91.4z"/>
		<path d="M774.8,91.4c-0.3,0-0.7-0.1-0.9-0.4L761,79.5c-0.3-0.3-0.5-0.6-0.5-1c0-0.3,0.1-0.7,0.4-0.9c0.5-0.6,1.4-0.6,1.9-0.1
			l12.9,11.6c0.3,0.3,0.5,0.6,0.5,1c0,0.3-0.1,0.7-0.4,0.9C775.5,91.3,775.2,91.4,774.8,91.4z"/>
	</g>
	<g>
		<path class="st0" d="M718.6,120.8c0-11.6,9.2-18.4,18.9-18.4c9.8,0,19.1,6.9,19.1,18.1c0,4.4-1.4,8-2.6,10.5
			c-2.8,6.1-11.6,21.4-15.7,28.4h-12.8l12-20.6C726.8,138.7,718.6,131.7,718.6,120.8z M730,120.8c0,5.7,4.5,7.5,7.6,7.5
			c3.1,0,7.6-1.8,7.6-7.5c0-5.5-4.1-7.6-7.6-7.6C734,113.2,730,115.3,730,120.8z"/>
	</g>
</g>
<g>
	<path d="M1117,185.6c-47.2,0-85.6-38.4-85.6-85.6c0-47.2,38.4-85.6,85.6-85.6c47.2,0,85.6,38.4,85.6,85.6
		C1202.6,147.2,1164.2,185.6,1117,185.6z M1117,22.6c-42.7,0-77.4,34.7-77.4,77.4c0,42.7,34.7,77.4,77.4,77.4
		c42.7,0,77.4-34.7,77.4-77.4C1194.4,57.3,1159.7,22.6,1117,22.6z"/>
	<g>
		<path d="M1165.9,74.2c-0.7,0-1.4-0.4-1.8-1c-9.7-16.9-27.7-27.4-47.1-27.4c-13.3,0-26.1,4.9-36.1,13.8c-0.8,0.8-2.1,0.7-2.9-0.2
			s-0.7-2.1,0.2-2.9c10.7-9.6,24.5-14.8,38.8-14.8c20.9,0,40.3,11.3,50.7,29.5c0.6,1,0.2,2.2-0.8,2.8
			C1166.6,74.1,1166.3,74.2,1165.9,74.2z"/>
		<g>
			<polygon points="1087,59 1068.1,72.1 1077.9,51.3 			"/>
		</g>
	</g>
	<g>
		<path d="M1117,158.3c-20.8,0-40.2-11.2-50.6-29.3c-0.6-1-0.2-2.2,0.8-2.8c1-0.6,2.2-0.2,2.8,0.8c9.6,16.8,27.7,27.3,47,27.3
			c13.3,0,26-4.9,36-13.7c0.8-0.8,2.1-0.7,2.9,0.2c0.8,0.9,0.7,2.1-0.2,2.9C1145,153.1,1131.3,158.3,1117,158.3z"/>
		<g>
			<polygon points="1156,148.8 1165.8,128 1146.9,141.1 			"/>
		</g>
	</g>
	<g>
		<path d="M1117.2,122.8c-9.6,0-16-7.7-16-14.8v-1.4h11.1l0.1,1.2c0.2,1.8,1.5,4,4.7,4c1,0,4.3-0.3,4.3-3.8c0-1.3-0.5-4.4-5.1-4.4
			h-4.2v-9.6h3.9c3.7,0,4.2-2.2,4.2-3.4c0-2.3-2.1-2.9-3.3-2.9c-1.3,0-2.9,0.5-3.2,2.7l-0.1,1.2h-10.9v-1.4c0-7.4,6.2-13,14.5-13
			c8,0,14,5.4,14,12.5c0,3.4-1.3,6.6-3.5,8.6c3.1,2,5.1,5.8,5.1,10.2C1132.8,116.5,1126,122.8,1117.2,122.8z M1104,109.4
			c0.8,5.4,5.9,10.7,13.2,10.7c7.2,0,12.9-5.1,12.9-11.6c0-4-2-7.4-5-8.5l-0.9-0.3v-2.3l0.7-0.4c2.1-1.2,3.6-4.1,3.6-7.3
			c0-5.6-4.8-9.8-11.3-9.8c-5.3,0-10.9,3.1-11.7,8.8h5.7c0.9-2.9,3.4-4,5.6-4c3,0,6.1,1.9,6.1,5.7c0,2.8-1.8,6.2-7,6.2h-1.2v4.2h1.5
			c5.8,0,7.9,3.9,7.9,7.2c0,3.9-2.8,6.6-7,6.6c-4,0-6.4-2.5-7.2-5.2H1104z"/>
	</g>
</g>
<image style="overflow:visible;" width="388" height="439" xlink:href="9D792A182D8DFCB3.png"  transform="matrix(0.2897 0 0 0.2897 1407 1466)">
</image>
<path d="M1472.6,1616.3c-47.2,0-85.6-38.4-85.6-85.6c0-47.2,38.4-85.6,85.6-85.6s85.6,38.4,85.6,85.6
	C1558.2,1577.9,1519.8,1616.3,1472.6,1616.3z M1472.6,1453.4c-42.7,0-77.4,34.7-77.4,77.4c0,42.7,34.7,77.4,77.4,77.4
	c42.7,0,77.4-34.7,77.4-77.4C1550,1488.1,1515.3,1453.4,1472.6,1453.4z"/>
<path d="M378,185.6c-47.2,0-85.6-38.4-85.6-85.6c0-47.2,38.4-85.6,85.6-85.6s85.6,38.4,85.6,85.6C463.6,147.2,425.2,185.6,378,185.6
	z M378,22.6c-42.7,0-77.4,34.7-77.4,77.4c0,42.7,34.7,77.4,77.4,77.4c42.7,0,77.4-34.7,77.4-77.4C455.4,57.3,420.7,22.6,378,22.6z"
	/>
<g>
	<path class="st1" d="M390.1,131.1c0.1-0.9-0.3-1.7-0.7-2.4c-4.2-7.4-10.8-11-18.9-12.5c-5.3-1-10.8-0.9-16.1-1.7
		c-12.7-1.8-23-7.3-29.3-18.9c-1.5-2.8-2.3-6-2.3-9.3c0-3.3,1.4-5.8,4.1-7.7c3.3-2.3,7-3.1,10.8-3.5c0.4,0,0.8,0.1,1.1-0.3
		c0.2,0,0.4,0.1,0.5,0.3c1.4,3.2,3.4,6,5.6,8.7c4.9,5.8,11.2,9.5,18.3,12.2c4.4,1.7,9,3.1,13.2,5.3c7.6,4,12.8,9.9,14.4,18.5
		c0.5,2.9,0.6,5.8,0.1,8.7c-0.1,0.7-0.1,1.4-0.3,2C390.5,131,390.4,131.1,390.1,131.1z"/>
	<path class="st2" d="M339.1,75.2c-0.1-0.1-0.2-0.2-0.2-0.3c-1.8-4.4-2.6-8.9-1.7-13.6c1-5.3,3.8-7.9,9.1-8.6c3.7-0.5,7.4,0,11,0.8
		c-0.4,10.6,3.9,19.3,11.1,26.8c3.2,3.3,7.1,5.7,10.8,8.3c3.7,2.5,7.4,4.8,10.5,8.1c2.2,2.3,4.2,4.8,5.4,7.8
		c-0.9,0.2-1.3-0.5-1.8-0.9c-7.4-6.2-15.3-11.6-23.3-17c-5.3-3.5-10.8-6.6-16.8-8.8c-3.8-1.4-7.7-2.3-11.8-2.2
		C340.6,75.5,339.8,75.7,339.1,75.2z"/>
	<path class="st3" d="M389.3,134.4c2.6-1.9,4.9-7.5,6-10.3c2.6-6.5,2.6-13.1-0.3-19.5c-1.6-1.1-2.9-2.5-4.5-3.6
		c-8.9-6.5-17.6-13.4-27.3-18.8c-7.5-4.2-15.3-7.5-24.2-6.9c-0.1,0.5,0.2,1,0.4,1.4c1.8,3.5,4.2,6.8,6.9,9.6
		c4.7,4.8,10.4,8,16.7,10.3c5.2,1.9,10.5,3.5,15.3,6.5c9,5.7,13.3,13.7,12.3,24.3c-0.1,1.2-0.2,2.5-0.5,3.8
		C389.9,132.2,389.6,133.3,389.3,134.4"/>
	<path class="st4" d="M357.3,53.5c0.4-2.7,0.9-5.3,2.1-7.8c2.2-4.5,5.6-6.2,10.8-5.6c9.1,1,16.1,6,21.7,13
		c5.7,7.1,9.8,15.1,13.6,23.3c4.2,8.9,8.4,17.7,10.8,27.3c2.9,11,5.7,22.1,8.4,33.1c0.8,3.3,0.7,6.7-0.5,9.9
		c-1.9,5.3-6.1,7.8-11.3,8.9c-8.8,1.7-16.3-0.8-22.8-6.7c-0.4-0.4-0.9-0.8-1.3-1.2c-3.1-2.5-3.5-5.4-1.8-9.2
		c0.7-1.4,1.6-2.7,2.4-4.1c0.8-1.2,1.4-2,1.9-2.7c2.8-4.3,4.7-8.6,5.4-13.8c0.6-4.5,0.2-9-1.8-13.2c-2.5-5.6-6.8-9.6-11.7-13
		c-4-2.8-8.1-5.2-11.9-8.3c-7.2-5.9-11.9-13.4-13.8-22.5c-0.4-2-0.5-4.1-0.5-6.2C356.9,54.2,356.9,53.8,357.3,53.5z"/>
</g>
<path d="M100,149.3c48.3,0,51.2-19.2,51.3-20c0-0.2,0-0.4,0-0.6l-2-10.9c0-0.5-0.1-0.9-0.3-1.4l0,0v0c-2.4-7.6-16.3-12.6-38.3-13.9
	c0.2-2.4,0.5-4.5,0.7-5.8c8.2-0.5,14.2-5,17.8-8.8c2.7-2.9,3.8-7.1,2.7-11l-3-11.2c-0.3-8.5-12.9-15.1-29-15.1s-28.7,6.6-29,15.1
	L68,77c-1.1,3.9,0,8.1,2.7,11c3.6,3.8,9.6,8.3,17.8,8.8c0.2,1.3,0.5,3.3,0.7,5.8c-22,1.2-36,6.2-38.3,13.9c0,0.1,0,0.1,0,0.2
	l-0.2,1.1c0,0,0,0,0,0.1l-2,10.9c0,0.2,0,0.4,0,0.6C48.8,130.1,51.7,149.3,100,149.3L100,149.3z M145.5,117.5l0.2,0.8
	c0,0.1,0,0.3,0,0.4c0,0,0,0.1,0,0.1c0,0,0,0.1,0,0.1c0,0.1,0,0.2-0.1,0.4c0,0,0,0.1,0,0.1c0,0,0,0.1,0,0.1c-0.1,0.3-0.2,0.5-0.3,0.7
	c0,0-0.1,0.1-0.1,0.2c0,0-0.1,0.1-0.1,0.1c-0.3,0.5-0.8,1.1-1.5,1.7c0-0.1-0.1-0.1-0.2-0.2c0,0,0,0-0.1-0.1
	c-0.1-0.1-0.2-0.3-0.3-0.4c0,0-0.1-0.1-0.1-0.1c-0.1-0.1-0.2-0.2-0.3-0.3c0,0-0.1-0.1-0.1-0.1c-0.1-0.1-0.3-0.3-0.5-0.5l0,0
	c-0.2-0.1-0.3-0.3-0.5-0.4c0,0-0.1-0.1-0.2-0.1c-0.1-0.1-0.3-0.2-0.5-0.4c0,0-0.1-0.1-0.1-0.1c-0.2-0.2-0.4-0.3-0.7-0.5
	c0,0-0.1-0.1-0.1-0.1c-0.2-0.1-0.4-0.3-0.6-0.4c-0.1,0-0.1-0.1-0.2-0.1c-0.2-0.1-0.5-0.3-0.8-0.5c0,0,0,0-0.1,0
	c-0.3-0.2-0.6-0.3-0.9-0.5c-0.1,0-0.2-0.1-0.3-0.1c-0.3-0.1-0.5-0.3-0.8-0.4c-0.1,0-0.2-0.1-0.3-0.1c-0.4-0.2-0.7-0.3-1.1-0.5
	c0,0-0.1,0-0.2-0.1c-0.3-0.1-0.7-0.3-1.1-0.4c-0.1,0-0.2-0.1-0.4-0.1c-0.4-0.1-0.7-0.3-1.1-0.4c-0.1,0-0.1,0-0.2-0.1
	c-0.5-0.1-0.9-0.3-1.4-0.4c-0.1,0-0.2-0.1-0.4-0.1c-0.4-0.1-0.8-0.2-1.2-0.3c-0.1,0-0.3-0.1-0.4-0.1c-0.5-0.1-1.1-0.3-1.7-0.4h0
	c-0.6-0.1-1.1-0.2-1.7-0.4c-0.2,0-0.3-0.1-0.5-0.1c-0.5-0.1-1-0.2-1.5-0.3c-0.1,0-0.3,0-0.4-0.1c-0.7-0.1-1.3-0.2-2-0.3
	c-0.1,0-0.3,0-0.5-0.1c-0.6-0.1-1.2-0.1-1.8-0.2c-0.2,0-0.4,0-0.7-0.1c-0.7-0.1-1.4-0.1-2.1-0.2c-0.1,0-0.2,0-0.2,0
	c-0.8-0.1-1.6-0.1-2.4-0.2c-0.2,0-0.5,0-0.7,0c-0.3,0-0.6,0-0.9-0.1c-0.2-1.8-0.3-3.7-0.3-5.7C134,107.6,143.9,112.8,145.5,117.5
	L145.5,117.5z M140.4,124.6c-0.2,0.1-0.3,0.2-0.5,0.3c-0.1,0.1-0.3,0.1-0.5,0.2c-0.4,0.2-0.8,0.4-1.3,0.6c-0.2,0.1-0.4,0.2-0.7,0.3
	c-5.1,1.9-12.7,2.8-19.1-0.5c-3.3-1.7-5.5-5-6.7-9.7C132.6,117,138.7,122.2,140.4,124.6z M100,54.4c15.1,0,25.3,6.1,25.3,11.7
	c0,0.3,0,0.5-0.1,0.8c0,0.1,0,0.1,0,0.2c0,0.2-0.1,0.4-0.1,0.5c0,0.1,0,0.1-0.1,0.2c-0.1,0.2-0.2,0.5-0.3,0.7c0,0,0,0,0,0.1
	c-0.1,0.2-0.2,0.4-0.3,0.6c0,0.1-0.1,0.1-0.1,0.2c-0.1,0.2-0.2,0.3-0.3,0.5c0,0-0.1,0.1-0.1,0.1c-0.1,0.2-0.3,0.3-0.4,0.5
	c-0.1-0.1-0.3-0.2-0.5-0.3c-0.1-0.1-0.3-0.2-0.4-0.3c-0.2-0.2-0.5-0.3-0.7-0.5c-0.1-0.1-0.3-0.2-0.4-0.3c-0.3-0.2-0.6-0.3-0.9-0.5
	c-0.1,0-0.2-0.1-0.3-0.2c-0.4-0.2-0.9-0.4-1.3-0.6c-0.1,0-0.2-0.1-0.3-0.1c-0.4-0.1-0.7-0.3-1.1-0.4c-0.2-0.1-0.3-0.1-0.5-0.2
	c-0.3-0.1-0.6-0.2-0.9-0.3c-0.2-0.1-0.4-0.1-0.6-0.2c-0.3-0.1-0.6-0.2-0.9-0.3c-0.2-0.1-0.4-0.1-0.7-0.2c-0.3-0.1-0.6-0.2-0.9-0.2
	c-0.2-0.1-0.5-0.1-0.7-0.2c-0.3-0.1-0.6-0.1-0.9-0.2c-0.2,0-0.5-0.1-0.7-0.1c-0.3-0.1-0.6-0.1-0.9-0.2c-0.2,0-0.5-0.1-0.7-0.1
	c-0.3,0-0.6-0.1-1-0.1c-0.2,0-0.5-0.1-0.7-0.1c-0.3,0-0.7-0.1-1-0.1c-0.2,0-0.5,0-0.7-0.1c-0.4,0-0.7-0.1-1.1-0.1
	c-0.2,0-0.5,0-0.7,0c-0.4,0-0.8,0-1.2-0.1c-0.2,0-0.4,0-0.6,0c-0.6,0-1.2,0-1.8,0s-1.2,0-1.8,0c-0.2,0-0.4,0-0.6,0
	c-0.4,0-0.8,0-1.2,0.1c-0.2,0-0.5,0-0.7,0c-0.4,0-0.7,0-1.1,0.1c-0.2,0-0.5,0-0.7,0.1c-0.3,0-0.7,0.1-1,0.1c-0.2,0-0.5,0.1-0.7,0.1
	c-0.3,0-0.6,0.1-1,0.1c-0.2,0-0.5,0.1-0.7,0.1c-0.3,0.1-0.6,0.1-0.9,0.2c-0.2,0-0.5,0.1-0.7,0.1c-0.3,0.1-0.6,0.1-0.9,0.2
	c-0.2,0-0.5,0.1-0.7,0.2c-0.3,0.1-0.6,0.2-0.9,0.2c-0.2,0.1-0.4,0.1-0.7,0.2c-0.3,0.1-0.6,0.2-0.9,0.3c-0.2,0.1-0.4,0.1-0.6,0.2
	c-0.3,0.1-0.6,0.2-0.9,0.3c-0.2,0.1-0.3,0.1-0.5,0.2c-0.4,0.1-0.7,0.3-1.1,0.4c-0.1,0-0.2,0.1-0.3,0.1c-0.4,0.2-0.9,0.4-1.3,0.6
	c-0.1,0-0.2,0.1-0.3,0.2c-0.3,0.2-0.6,0.3-0.9,0.5c-0.1,0.1-0.3,0.2-0.4,0.3c-0.2,0.1-0.5,0.3-0.7,0.5c-0.1,0.1-0.3,0.2-0.4,0.3
	c-0.2,0.1-0.3,0.2-0.5,0.3c-0.1-0.2-0.3-0.3-0.4-0.5c0,0-0.1-0.1-0.1-0.2c-0.1-0.1-0.2-0.3-0.3-0.4c0-0.1-0.1-0.1-0.1-0.2
	c-0.1-0.2-0.2-0.4-0.3-0.6c0,0,0,0,0-0.1c-0.1-0.2-0.2-0.4-0.3-0.7c0-0.1,0-0.1-0.1-0.2c0-0.2-0.1-0.4-0.1-0.5c0-0.1,0-0.1,0-0.2
	c0-0.2-0.1-0.5-0.1-0.8C74.7,60.5,84.9,54.4,100,54.4L100,54.4z M120.3,72.9L120.3,72.9c-0.6,0.4-1.2,0.7-1.8,1
	c-0.1,0-0.2,0.1-0.3,0.1c-0.6,0.3-1.2,0.6-1.9,0.9c-0.1,0-0.2,0.1-0.4,0.1c-0.7,0.3-1.3,0.5-2.1,0.7c-0.1,0-0.2,0.1-0.3,0.1
	c-0.8,0.2-1.5,0.4-2.3,0.6h0c-0.8,0.2-1.6,0.4-2.4,0.5c-0.1,0-0.2,0-0.4,0.1c-0.8,0.1-1.6,0.3-2.4,0.4c-0.2,0-0.3,0-0.5,0
	c-0.8,0.1-1.7,0.2-2.5,0.2c-0.1,0-0.3,0-0.4,0c-0.9,0-1.8,0.1-2.7,0.1c-0.9,0-1.8,0-2.7-0.1c-0.1,0-0.3,0-0.4,0
	c-0.9,0-1.7-0.1-2.5-0.2c-0.2,0-0.3,0-0.5,0c-0.8-0.1-1.6-0.2-2.4-0.4c-0.1,0-0.2,0-0.4-0.1c-0.8-0.1-1.6-0.3-2.4-0.5h-0.1
	c-0.8-0.2-1.5-0.4-2.3-0.6c-0.1,0-0.2-0.1-0.4-0.1c-0.7-0.2-1.4-0.5-2-0.7c-0.1,0-0.3-0.1-0.4-0.2c-0.6-0.3-1.2-0.5-1.8-0.8
	c-0.1,0-0.2-0.1-0.3-0.2c-0.6-0.3-1.1-0.6-1.7-0.9c0,0,0,0-0.1,0C84.4,69.9,91.9,68,100,68S115.5,69.9,120.3,72.9L120.3,72.9z
	 M54.5,117.5c1.5-4.6,11.5-9.9,34.9-11.2c0,0.1,0,0.2,0,0.2c0,0.9,0,1.8-0.1,2.7c0,0.1,0,0.1,0,0.2c0,0.8-0.1,1.6-0.2,2.3
	c0,0.1,0,0.2,0,0.3c-0.3,0-0.6,0-1,0.1c-0.2,0-0.5,0-0.7,0c-0.8,0-1.7,0.1-2.5,0.2c-0.1,0-0.2,0-0.2,0c-0.7,0.1-1.4,0.1-2.1,0.2
	c-0.2,0-0.4,0-0.7,0.1c-0.6,0.1-1.2,0.1-1.8,0.2c-0.1,0-0.3,0-0.5,0.1c-0.7,0.1-1.4,0.2-2,0.3c-0.2,0-0.3,0-0.5,0.1
	c-0.5,0.1-1,0.2-1.5,0.3c-0.2,0-0.4,0.1-0.5,0.1c-0.6,0.1-1.1,0.2-1.7,0.3c0,0-0.1,0-0.1,0c-0.6,0.1-1.1,0.3-1.7,0.4
	c-0.2,0-0.3,0.1-0.5,0.1c-0.4,0.1-0.8,0.2-1.2,0.3c-0.1,0-0.3,0.1-0.4,0.1c-0.5,0.1-1,0.3-1.4,0.4c-0.1,0-0.2,0.1-0.3,0.1
	c-0.4,0.1-0.7,0.2-1.1,0.4c-0.1,0-0.3,0.1-0.4,0.1c-0.3,0.1-0.7,0.3-1,0.4c-0.1,0-0.1,0-0.2,0.1c-0.4,0.2-0.7,0.3-1.1,0.5
	c-0.1,0-0.2,0.1-0.3,0.1c-0.3,0.1-0.5,0.2-0.8,0.4c-0.1,0-0.2,0.1-0.3,0.1c-0.3,0.2-0.6,0.3-0.9,0.5c0,0-0.1,0-0.1,0.1
	c-0.2,0.1-0.5,0.3-0.7,0.4c-0.1,0-0.2,0.1-0.2,0.2c-0.2,0.1-0.4,0.3-0.6,0.4c-0.1,0-0.1,0.1-0.2,0.1c-0.2,0.2-0.4,0.3-0.6,0.5
	c-0.1,0-0.1,0.1-0.2,0.1c-0.1,0.1-0.3,0.2-0.4,0.4c-0.1,0-0.1,0.1-0.2,0.2c-0.2,0.1-0.3,0.3-0.4,0.4c0,0-0.1,0.1-0.1,0.1
	c-0.1,0.1-0.3,0.3-0.4,0.4c0,0-0.1,0.1-0.1,0.2c-0.1,0.1-0.2,0.2-0.3,0.3c0,0-0.1,0.1-0.1,0.1c-0.1,0.1-0.2,0.3-0.3,0.4
	c0,0-0.1,0.1-0.1,0.1c0,0.1-0.1,0.1-0.1,0.2c0,0,0,0,0,0c0,0-0.1-0.1-0.2-0.1c-0.2-0.2-0.3-0.3-0.5-0.5c-0.1-0.1-0.1-0.1-0.2-0.2
	c-0.1-0.2-0.3-0.3-0.4-0.5c0-0.1-0.1-0.1-0.1-0.2c-0.1-0.2-0.3-0.4-0.4-0.6c0,0,0-0.1-0.1-0.1c-0.1-0.2-0.2-0.3-0.2-0.5
	c0-0.1,0-0.1-0.1-0.2c0-0.2-0.1-0.3-0.1-0.5c0,0,0-0.1,0-0.2c0-0.2,0-0.4,0-0.6L54.5,117.5L54.5,117.5z M88.4,115.7
	c-0.2,0.6-0.3,1.2-0.5,1.8c0,0.1-0.1,0.3-0.2,0.4c-0.2,0.4-0.3,0.9-0.5,1.2c-0.1,0.2-0.2,0.4-0.3,0.6c-0.2,0.3-0.3,0.7-0.5,1
	c-0.1,0.2-0.2,0.4-0.3,0.5c-0.2,0.3-0.4,0.6-0.6,0.8c-0.1,0.2-0.2,0.3-0.4,0.5c-0.2,0.2-0.4,0.5-0.6,0.7c-0.1,0.1-0.3,0.3-0.4,0.4
	c-0.2,0.2-0.5,0.4-0.8,0.7c-0.1,0.1-0.2,0.2-0.4,0.3c-0.4,0.3-0.8,0.6-1.3,0.8c-0.5,0.2-0.9,0.4-1.4,0.6c-0.2,0.1-0.3,0.1-0.5,0.2
	c-0.3,0.1-0.6,0.2-1,0.3c-0.2,0.1-0.4,0.1-0.6,0.2c-0.3,0.1-0.6,0.2-0.9,0.2c-0.2,0-0.4,0.1-0.6,0.1c-0.3,0.1-0.6,0.1-0.9,0.2
	c-0.2,0-0.4,0.1-0.7,0.1c-0.3,0-0.6,0.1-0.9,0.1c-0.2,0-0.4,0-0.7,0c-0.3,0-0.6,0-0.9,0c-0.2,0-0.4,0-0.7,0c-0.3,0-0.6,0-0.9,0
	c-0.2,0-0.4,0-0.7,0c-0.3,0-0.6,0-0.9-0.1c-0.2,0-0.4,0-0.6-0.1c-0.3,0-0.6-0.1-0.9-0.1c-0.2,0-0.4-0.1-0.6-0.1
	c-0.3,0-0.6-0.1-0.9-0.2c-0.2,0-0.4-0.1-0.6-0.1c-0.3-0.1-0.7-0.2-1-0.2c-0.1,0-0.3-0.1-0.4-0.1c-0.9-0.3-1.8-0.6-2.7-0.9
	c-0.1-0.1-0.3-0.1-0.4-0.2c-0.3-0.1-0.6-0.2-0.8-0.4c-0.2-0.1-0.3-0.2-0.5-0.2c-0.2-0.1-0.4-0.2-0.5-0.3
	C61.4,122.4,67.4,117,88.4,115.7L88.4,115.7z M53.2,124.4c0.9,0.9,1.9,1.8,3.1,2.6c6.7,4.4,18.1,6.4,27,1.8c0.6-0.3,1.2-0.7,1.7-1.1
	c3.9-2.7,6.4-7.3,7.4-13.6c0.5-2.9,0.7-6.2,0.5-9.8c-0.2-5.4-1.1-9.5-1.1-9.7c-0.2-0.9-0.9-1.5-1.8-1.5c-7.7,0-13.3-4.2-16.7-7.7
	c-1.9-2-2.6-4.8-1.9-7.5l1.6-5.9c0.6,0.8,1.3,1.5,2.1,2.2c5.2,4.5,14.5,7.2,24.7,7.2c1.3,0,2.5,0,3.8-0.1c8.7-0.6,16.3-3.1,20.9-7.1
	c0.8-0.7,1.5-1.4,2.1-2.2l1.6,5.9c0.7,2.7,0,5.5-1.9,7.5c-3.3,3.5-8.9,7.7-16.7,7.7c-0.9,0-1.6,0.6-1.8,1.5c0,0.2-0.9,4.3-1.1,9.7
	c-0.1,3.6,0,6.8,0.5,9.8c0.1,0.9,0.3,1.8,0.5,2.6c1.5,5.8,4.4,9.9,8.6,12.1c0.4,0.2,0.8,0.4,1.3,0.6c0.1,0.1,0.3,0.1,0.4,0.2
	c0.3,0.1,0.6,0.2,0.9,0.3c0.2,0.1,0.4,0.1,0.5,0.2c0.3,0.1,0.5,0.2,0.8,0.3c0.2,0.1,0.4,0.1,0.6,0.2c0.3,0.1,0.5,0.1,0.8,0.2
	c0.2,0,0.4,0.1,0.6,0.1c0.3,0.1,0.5,0.1,0.8,0.2c0.2,0,0.4,0.1,0.6,0.1c0.3,0,0.5,0.1,0.8,0.1c0.2,0,0.4,0,0.6,0.1
	c0.3,0,0.6,0,0.8,0.1c0.2,0,0.4,0,0.6,0c0.3,0,0.6,0,0.9,0c0.1,0,0.2,0,0.4,0c0,0,0.1,0,0.2,0c0.8,0,1.5,0,2.3-0.1
	c0.1,0,0.2,0,0.4,0c0.8-0.1,1.6-0.2,2.4-0.3c0.1,0,0.2,0,0.3-0.1c0.8-0.1,1.6-0.3,2.4-0.6c0.1,0,0.1,0,0.2-0.1
	c0.8-0.2,1.7-0.5,2.5-0.8c0.3-0.1,0.7-0.2,1-0.4c0.5-0.2,1-0.4,1.4-0.6c0.2-0.1,0.5-0.2,0.7-0.3c0.9-0.4,1.6-0.9,2.3-1.3h0
	c0.4-0.3,0.8-0.6,1.2-0.9c0.2-0.2,0.4-0.3,0.6-0.5c0.3-0.3,0.6-0.6,0.9-0.9c0,0,0.1-0.1,0.1-0.1l0.9,4.7c-0.5,2-5.4,16.5-47.6,16.5
	S52.9,131,52.4,129.1L53.2,124.4L53.2,124.4z"/>
</svg>
