<?xml version="1.0" encoding="utf-8"?>
<!-- Generator: Adobe Illustrator 27.8.1, SVG Export Plug-In . SVG Version: 6.00 Build 0)  -->
<svg version="1.1" id="Layer_1" xmlns="http://www.w3.org/2000/svg" xmlns:xlink="http://www.w3.org/1999/xlink" x="0px" y="0px"
	 viewBox="0 0 200 200" style="enable-background:new 0 0 200 200;" xml:space="preserve">
<style type="text/css">
	.st0{fill:#FFFFFF;}
</style>
<g>
	<path d="M100,185.6c-47.2,0-85.6-38.4-85.6-85.6c0-47.2,38.4-85.6,85.6-85.6c47.2,0,85.6,38.4,85.6,85.6
		C185.6,147.2,147.2,185.6,100,185.6z M100,22.6c-42.7,0-77.4,34.7-77.4,77.4c0,42.7,34.7,77.4,77.4,77.4s77.4-34.7,77.4-77.4
		C177.4,57.3,142.7,22.6,100,22.6z"/>
	<g>
		<g>
			<path d="M100,152.9c-1.1,0-2-0.9-2-2v-99c0-1.1,0.9-2,2-2c1.1,0,2,0.9,2,2v99C102,152,101.1,152.9,100,152.9z"/>
			<path d="M100,125.1c-8.9,0-16.4-5.4-20.1-14.5c-4.9-11.9,0.3-24.6,5.3-34.3c2-3.8,2-3.8,3-5.7c1-1.9,3-5.7,9-17.1l2.8-6.3
				l2.9,6.4c5.9,11.3,7.9,15.1,8.9,17c1,1.9,1,1.9,3,5.7c5,9.7,10.1,22.4,5.3,34.3C116.4,119.6,108.9,125.1,100,125.1z M100,56.6
				c-5.4,10.4-7.3,13.9-8.3,15.7c-1,1.9-1,1.9-3,5.7c-4.6,9-9.3,20.6-5.1,31c3,7.5,9.2,12,16.3,12c7.2,0,13.3-4.5,16.3-12
				c4.2-10.4-0.5-22-5.1-31c-2-3.8-2-3.8-3-5.7C107.3,70.5,105.4,66.9,100,56.6z"/>
		</g>
	</g>
</g>
</svg>
