<?xml version="1.0" encoding="utf-8"?>
<!-- Generator: Adobe Illustrator 27.8.1, SVG Export Plug-In . SVG Version: 6.00 Build 0)  -->
<svg version="1.1" id="Layer_1" xmlns="http://www.w3.org/2000/svg" xmlns:xlink="http://www.w3.org/1999/xlink" x="0px" y="0px"
	 viewBox="0 0 200 200" style="enable-background:new 0 0 200 200;" xml:space="preserve">
<style type="text/css">
	.st0{fill:#FFFFFF;}
</style>
<g>
	<path d="M100,185.6c-47.2,0-85.6-38.4-85.6-85.6c0-47.2,38.4-85.6,85.6-85.6s85.6,38.4,85.6,85.6
		C185.6,147.2,147.2,185.6,100,185.6z M100,22.6c-42.7,0-77.4,34.7-77.4,77.4c0,42.7,34.7,77.4,77.4,77.4
		c42.7,0,77.4-34.7,77.4-77.4C177.4,57.3,142.7,22.6,100,22.6z"/>
	<g>
		<path d="M91.5,144.3H80v-28.5h-8.7v-9.7h6.2c1.7,0,2.9-1.3,2.9-3v-3.7h11L91.5,144.3z M82.7,141.6h6l-0.1-39.4h-5.6v0.9
			c0,3.3-2.4,5.7-5.6,5.7H74v4.2h8.7V141.6z"/>
		<path d="M113.2,144.5c-7.7,0-15.5-5.2-15.5-15.2c0-3,0.7-5.4,1.3-7.3c1.1-3.6,6.3-12,10-18.1c1-1.6,1.8-3,2.5-4l0.4-0.7h12.7
			l-9,15.5c7.8,0.9,13.2,6.7,13.2,14.6C128.7,139.2,120.7,144.5,113.2,144.5z M113.4,102c-0.6,1-1.3,2.1-2.1,3.4
			c-3.5,5.6-8.7,14.2-9.8,17.5c-0.6,1.8-1.2,3.8-1.2,6.4c0,8.2,6.4,12.5,12.8,12.5c6.4,0,12.8-4.3,12.8-12.4c0-7.1-5.2-12-12.7-12
			h-2.4l9-15.4H113.4z M113.2,136.4c-3.4,0-7-2.2-7-7c0-4.8,3.6-7,7-7c3.4,0,7,2.2,7,7C120.2,134.3,116.7,136.4,113.2,136.4z
			 M113.2,125.2c-0.7,0-4.3,0.2-4.3,4.2c0,4.1,3.6,4.3,4.3,4.3c1,0,4.3-0.3,4.3-4.3C117.5,125.4,113.9,125.2,113.2,125.2z"/>
	</g>
	<g>
		<path d="M61.2,68.8c-0.4,0-0.7-0.2-1-0.5c-0.2-0.3-0.4-0.6-0.4-0.9c0-0.4,0.2-0.7,0.5-1l12.9-11.6c0.6-0.5,1.4-0.5,1.9,0.1
			c0.2,0.3,0.4,0.6,0.4,0.9c0,0.4-0.2,0.7-0.5,1L62.1,68.5C61.9,68.7,61.5,68.8,61.2,68.8z"/>
		<path d="M86.9,68.8c-0.3,0-0.7-0.1-0.9-0.4L73.2,56.9c-0.3-0.3-0.4-0.6-0.4-1c0-0.3,0.1-0.7,0.4-0.9c0.5-0.6,1.4-0.6,1.9-0.1
			l12.9,11.6c0.3,0.3,0.5,0.6,0.5,1c0,0.3-0.1,0.7-0.4,0.9C87.7,68.7,87.3,68.8,86.9,68.8z"/>
		<path d="M87.1,68.8c-0.4,0-0.7-0.2-1-0.5c-0.2-0.3-0.4-0.6-0.4-0.9c0-0.4,0.2-0.7,0.5-1l12.9-11.6c0.6-0.5,1.4-0.5,1.9,0.1
			c0.2,0.3,0.4,0.6,0.4,0.9c0,0.4-0.2,0.7-0.5,1L88.1,68.5C87.8,68.7,87.5,68.8,87.1,68.8z"/>
		<path d="M112.9,68.8c-0.3,0-0.7-0.1-0.9-0.4L99.1,56.9c-0.3-0.3-0.5-0.6-0.5-1c0-0.3,0.1-0.7,0.4-0.9c0.5-0.6,1.4-0.6,1.9-0.1
			l12.9,11.6c0.3,0.3,0.5,0.6,0.5,1c0,0.3-0.1,0.7-0.4,0.9C113.6,68.7,113.2,68.8,112.9,68.8z"/>
		<path d="M113.1,68.8c-0.4,0-0.7-0.2-1-0.5c-0.2-0.3-0.4-0.6-0.4-0.9c0-0.4,0.2-0.7,0.5-1L125,54.8c0.6-0.5,1.4-0.5,1.9,0.1
			c0.2,0.3,0.4,0.6,0.4,0.9c0,0.4-0.2,0.7-0.5,1L114,68.5C113.7,68.7,113.4,68.8,113.1,68.8z"/>
		<path d="M138.8,68.8c-0.3,0-0.7-0.1-0.9-0.4L125,56.9c-0.3-0.3-0.5-0.6-0.5-1c0-0.3,0.1-0.7,0.4-0.9c0.5-0.6,1.4-0.6,1.9-0.1
			l12.9,11.6c0.3,0.3,0.5,0.6,0.5,1c0,0.3-0.1,0.7-0.4,0.9C139.5,68.7,139.2,68.8,138.8,68.8z"/>
	</g>
	<g>
		<path d="M61.2,80.1c-0.4,0-0.7-0.2-1-0.5c-0.2-0.3-0.4-0.6-0.4-0.9c0-0.4,0.2-0.7,0.5-1l12.9-11.6c0.6-0.5,1.4-0.5,1.9,0.1
			c0.2,0.3,0.4,0.6,0.4,0.9c0,0.4-0.2,0.7-0.5,1L62.1,79.8C61.9,80,61.5,80.1,61.2,80.1z"/>
		<path d="M86.9,80.1c-0.3,0-0.7-0.1-0.9-0.4L73.2,68.2c-0.3-0.3-0.4-0.6-0.4-1c0-0.3,0.1-0.6,0.4-0.9c0.5-0.6,1.4-0.6,1.9-0.1
			l12.9,11.6c0.3,0.3,0.5,0.6,0.5,1c0,0.3-0.1,0.7-0.4,0.9C87.7,80,87.3,80.1,86.9,80.1z"/>
		<path d="M87.1,80.1c-0.4,0-0.7-0.2-1-0.5c-0.2-0.3-0.4-0.6-0.4-0.9c0-0.4,0.2-0.7,0.5-1l12.9-11.6c0.6-0.5,1.4-0.5,1.9,0.1
			c0.2,0.3,0.4,0.6,0.4,0.9c0,0.4-0.2,0.7-0.5,1L88.1,79.8C87.8,80,87.5,80.1,87.1,80.1z"/>
		<path d="M112.9,80.1c-0.3,0-0.7-0.1-0.9-0.4L99.1,68.2c-0.3-0.3-0.5-0.6-0.5-1c0-0.3,0.1-0.6,0.4-0.9c0.5-0.6,1.4-0.6,1.9-0.1
			l12.9,11.6c0.3,0.3,0.5,0.6,0.5,1c0,0.3-0.1,0.7-0.4,0.9C113.6,80,113.2,80.1,112.9,80.1z"/>
		<path d="M113.1,80.1c-0.4,0-0.7-0.2-1-0.5c-0.2-0.3-0.4-0.6-0.4-0.9c0-0.4,0.2-0.7,0.5-1L125,66.1c0.6-0.5,1.4-0.5,1.9,0.1
			c0.2,0.3,0.4,0.6,0.4,0.9c0,0.4-0.2,0.7-0.5,1L114,79.8C113.7,80,113.4,80.1,113.1,80.1z"/>
		<path d="M138.8,80.1c-0.3,0-0.7-0.1-0.9-0.4L125,68.2c-0.3-0.3-0.5-0.6-0.5-1c0-0.3,0.1-0.6,0.4-0.9c0.5-0.6,1.4-0.6,1.9-0.1
			l12.9,11.6c0.3,0.3,0.5,0.6,0.5,1c0,0.3-0.1,0.7-0.4,0.9C139.5,80,139.2,80.1,138.8,80.1z"/>
	</g>
	<g>
		<path d="M61.2,91.4c-0.4,0-0.7-0.2-1-0.5c-0.2-0.3-0.4-0.6-0.4-0.9c0-0.4,0.2-0.8,0.5-1l12.9-11.6c0.6-0.5,1.4-0.5,1.9,0.1
			c0.2,0.3,0.4,0.6,0.4,0.9c0,0.4-0.2,0.8-0.5,1L62.1,91.1C61.9,91.3,61.5,91.4,61.2,91.4z"/>
		<path d="M86.9,91.4c-0.3,0-0.7-0.1-0.9-0.4L73.2,79.5c-0.3-0.3-0.4-0.6-0.4-1c0-0.3,0.1-0.7,0.4-0.9c0.5-0.6,1.4-0.6,1.9-0.1
			l12.9,11.6c0.3,0.3,0.5,0.6,0.5,1c0,0.3-0.1,0.7-0.4,0.9C87.7,91.3,87.3,91.4,86.9,91.4z"/>
		<path d="M87.1,91.4c-0.4,0-0.7-0.2-1-0.5c-0.2-0.3-0.4-0.6-0.4-0.9c0-0.4,0.2-0.8,0.5-1l12.9-11.6c0.6-0.5,1.4-0.5,1.9,0.1
			c0.2,0.3,0.4,0.6,0.4,0.9c0,0.4-0.2,0.8-0.5,1L88.1,91.1C87.8,91.3,87.5,91.4,87.1,91.4z"/>
		<path d="M112.9,91.4c-0.3,0-0.7-0.1-0.9-0.4L99.1,79.5c-0.3-0.3-0.5-0.6-0.5-1c0-0.3,0.1-0.7,0.4-0.9c0.5-0.6,1.4-0.6,1.9-0.1
			l12.9,11.6c0.3,0.3,0.5,0.6,0.5,1c0,0.3-0.1,0.7-0.4,0.9C113.6,91.3,113.2,91.4,112.9,91.4z"/>
		<path d="M113.1,91.4c-0.4,0-0.7-0.2-1-0.5c-0.2-0.3-0.4-0.6-0.4-0.9c0-0.4,0.2-0.8,0.5-1L125,77.4c0.6-0.5,1.4-0.5,1.9,0.1
			c0.2,0.3,0.4,0.6,0.4,0.9c0,0.4-0.2,0.8-0.5,1L114,91.1C113.7,91.3,113.4,91.4,113.1,91.4z"/>
		<path d="M138.8,91.4c-0.3,0-0.7-0.1-0.9-0.4L125,79.5c-0.3-0.3-0.5-0.6-0.5-1c0-0.3,0.1-0.7,0.4-0.9c0.5-0.6,1.4-0.6,1.9-0.1
			l12.9,11.6c0.3,0.3,0.5,0.6,0.5,1c0,0.3-0.1,0.7-0.4,0.9C139.5,91.3,139.2,91.4,138.8,91.4z"/>
	</g>
</g>
</svg>
