<?xml version="1.0" encoding="utf-8"?>
<!-- Generator: Adobe Illustrator 27.8.1, SVG Export Plug-In . SVG Version: 6.00 Build 0)  -->
<svg version="1.1" id="Layer_1" xmlns="http://www.w3.org/2000/svg" xmlns:xlink="http://www.w3.org/1999/xlink" x="0px" y="0px"
	 viewBox="0 0 200 200" style="enable-background:new 0 0 200 200;" xml:space="preserve">
<style type="text/css">
	.st0{fill:#FFFFFF;}
</style>
<g>
	<path d="M100,142.7c-16,0-29-13-29-29c0-15.4,26.2-52.4,27.3-54l1.7-2.3l1.6,2.3c1.1,1.6,27.3,38.6,27.3,54
		C129,129.7,116,142.7,100,142.7z M100,64.4c-5.8,8.5-25,37.3-25,49.3c0,13.8,11.2,25,25,25c13.8,0,24.9-11.2,24.9-25
		C124.9,101.6,105.8,72.8,100,64.4z"/>
	<path d="M100,185.6c-47.2,0-85.6-38.4-85.6-85.6c0-47.2,38.4-85.6,85.6-85.6c47.2,0,85.6,38.4,85.6,85.6
		C185.6,147.2,147.2,185.6,100,185.6z M100,22.6c-42.7,0-77.4,34.7-77.4,77.4c0,42.7,34.7,77.4,77.4,77.4
		c42.7,0,77.4-34.7,77.4-77.4C177.4,57.3,142.7,22.6,100,22.6z"/>
</g>
</svg>
