<?xml version="1.0" encoding="utf-8"?>
<!-- Generator: Adobe Illustrator 27.8.1, SVG Export Plug-In . SVG Version: 6.00 Build 0)  -->
<svg version="1.1" id="Layer_1" xmlns="http://www.w3.org/2000/svg" xmlns:xlink="http://www.w3.org/1999/xlink" x="0px" y="0px"
	 viewBox="0 0 200 200" style="enable-background:new 0 0 200 200;" xml:space="preserve">
<style type="text/css">
	.st0{fill:#FFFFFF;}
</style>
<g>
	<path d="M100,185.6c-47.2,0-85.6-38.4-85.6-85.6c0-47.2,38.4-85.6,85.6-85.6c47.2,0,85.6,38.4,85.6,85.6
		C185.6,147.2,147.2,185.6,100,185.6z M100,22.6c-42.7,0-77.4,34.7-77.4,77.4c0,42.7,34.7,77.4,77.4,77.4
		c42.7,0,77.3-34.7,77.3-77.4C177.4,57.3,142.7,22.6,100,22.6z"/>
	<path d="M154.4,71.1c-0.7,0-1.4-0.4-1.8-1c-10.8-18.9-30.9-30.6-52.6-30.6c-21.6,0-41.8,11.7-52.6,30.6c-0.6,1-1.8,1.3-2.8,0.8
		c-1-0.6-1.3-1.8-0.8-2.8c11.5-20.2,33-32.7,56.1-32.7c23.1,0,44.6,12.5,56.1,32.7c0.6,1,0.2,2.2-0.8,2.8
		C155.1,71,154.7,71.1,154.4,71.1z"/>
	<g>
		<path d="M100,164.6c-23.1,0-44.5-12.4-56-32.4c-0.6-1-0.2-2.2,0.8-2.8c1-0.6,2.2-0.2,2.8,0.8c10.8,18.7,30.9,30.4,52.5,30.4
			c15.5,0,30.3-5.9,41.6-16.6c0.8-0.8,2.1-0.7,2.9,0.1c0.8,0.8,0.7,2.1-0.1,2.9C132.3,158.3,116.6,164.6,100,164.6z"/>
		<g>
			<polygon points="144.7,152.1 154.2,131.1 135.5,144.5 			"/>
		</g>
	</g>
	<g>
		<path d="M52.1,122.8c-9.6,0-16.1-7.7-16.1-14.8v-1.4h11.1l0.1,1.2c0.2,1.8,1.5,4,4.7,4c1,0,4.3-0.3,4.3-3.8c0-1.3-0.5-4.4-5.1-4.4
			h-4.2v-9.7h3.9c3.7,0,4.2-2.1,4.2-3.4c0-2.3-2.1-2.9-3.3-2.9c-1.3,0-2.9,0.5-3.2,2.7l-0.1,1.2H37.6v-1.4c0-7.4,6.2-13,14.5-13
			c8,0,14,5.4,14,12.5c0,3.4-1.3,6.6-3.5,8.6c3.1,2,5,5.8,5,10.2C67.7,116.5,60.9,122.8,52.1,122.8z M38.9,109.4
			c0.8,5.4,5.9,10.7,13.2,10.7c7.2,0,12.8-5.1,12.8-11.6c0-4-2-7.4-5-8.5l-0.9-0.3v-2.3l0.7-0.4c2.1-1.2,3.6-4.1,3.6-7.3
			c0-5.6-4.8-9.8-11.3-9.8c-5.3,0-10.9,3.1-11.7,8.8h5.7c0.9-2.9,3.4-4,5.6-4c3,0,6,1.9,6,5.7c0,2.8-1.8,6.2-7,6.2h-1.2v4.2h1.5
			c5.8,0,7.9,3.9,7.9,7.2c0,3.9-2.8,6.6-7,6.6c-4,0-6.4-2.5-7.2-5.2H38.9z"/>
		<path d="M88.1,122.8c-7.7,0-15.5-5.2-15.5-15.2c0-3.1,0.8-5.5,1.3-7.3c1.1-3.7,6.3-12.1,10.1-18.3c0.9-1.5,1.7-2.8,2.4-3.9
			l0.4-0.7h12.7l-9,15.5c7.9,0.9,13.2,6.7,13.2,14.6C103.7,117.5,95.7,122.8,88.1,122.8z M88.4,80.3c-0.6,0.9-1.2,2-2,3.2
			c-3.5,5.7-8.8,14.3-9.9,17.6c-0.7,2.1-1.2,4-1.2,6.4c0,8.2,6.4,12.5,12.8,12.5c6.4,0,12.8-4.3,12.8-12.4c0-7.1-5.2-12-12.7-12
			h-2.4l9-15.4H88.4z M88.1,114.7c-3.4,0-7-2.2-7-7c0-4.8,3.6-7,7-7c3.4,0,7,2.2,7,7C95.2,112.5,91.6,114.7,88.1,114.7z M88.1,103.4
			c-0.7,0-4.3,0.2-4.3,4.2c0,4.1,3.6,4.3,4.3,4.3c1,0,4.3-0.3,4.3-4.3C92.4,103.6,88.9,103.4,88.1,103.4z"/>
		<path d="M123.9,122.8c-11,0-17.4-8.3-17.4-22.8c0-14.5,6.3-22.8,17.3-22.8c11,0,17.3,8.3,17.3,22.8
			C141.1,114.5,134.9,122.8,123.9,122.8z M123.8,79.9c-12.7,0-14.6,12.5-14.6,20c0,7.5,1.9,20.1,14.6,20.1c12.6,0,14.5-12.5,14.5-20
			C138.4,92.5,136.5,79.9,123.8,79.9z M123.8,114c-3.6,0-7.9-2.4-7.9-14c0-11.6,4.3-14.1,7.9-14.1c3.7,0,8,2.5,8,14.1
			C131.9,111.6,127.5,114,123.8,114z M123.8,88.7c-4.3,0-5.2,6.2-5.2,11.3c0,7.5,1.7,11.3,5.2,11.3c3.5,0,5.3-3.8,5.3-11.2
			C129.1,92.5,127.3,88.7,123.8,88.7z"/>
		<path d="M147,86.5c0-4.3,3.5-7.8,7.8-7.8c4.2,0,7.8,3.5,7.8,7.8c0,4.3-3.6,7.8-7.8,7.8C150.5,94.3,147,90.8,147,86.5z M158.1,86.5
			c0-1.9-1.5-3.3-3.3-3.3c-1.8,0-3.3,1.4-3.3,3.3c0,1.8,1.5,3.3,3.3,3.3C156.6,89.8,158.1,88.4,158.1,86.5z"/>
	</g>
</g>
</svg>
