<?xml version="1.0" encoding="utf-8"?>
<!-- Generator: Adobe Illustrator 27.8.1, SVG Export Plug-In . SVG Version: 6.00 Build 0)  -->
<svg version="1.1" id="Layer_1" xmlns="http://www.w3.org/2000/svg" xmlns:xlink="http://www.w3.org/1999/xlink" x="0px" y="0px"
	 viewBox="0 0 200 200" style="enable-background:new 0 0 200 200;" xml:space="preserve">
<style type="text/css">
	.st0{fill:#FFFFFF;}
</style>
<path d="M100,185.6c-47.2,0-85.6-38.4-85.6-85.6c0-47.2,38.4-85.6,85.6-85.6s85.6,38.4,85.6,85.6C185.6,147.2,147.2,185.6,100,185.6
	z M100,22.6c-42.7,0-77.4,34.7-77.4,77.4c0,42.7,34.7,77.4,77.4,77.4c42.7,0,77.4-34.7,77.4-77.4C177.4,57.3,142.7,22.6,100,22.6z"
	/>
<g>
	<path d="M103.6,136.1c-0.5,0-0.9-0.1-1.3-0.4l-23.9-17.2h-15c-1.3,0-2.3-1-2.3-2.3v-30c0-1.3,1-2.3,2.3-2.3h15.1l23.9-17.1
		c0.7-0.5,1.6-0.6,2.4-0.2c0.8,0.4,1.2,1.2,1.2,2v65.2c0,0.9-0.5,1.7-1.2,2C104.3,136,104,136.1,103.6,136.1z M80,114.1
		c0.2,0.1,0.3,0.2,0.5,0.3l20.9,15V73.1l-20.9,15c-0.4,0.3-0.9,0.4-1.3,0.4H65.6v25.4h13.5C79.4,113.9,79.7,114,80,114.1z"/>
	<g>
		<path d="M118.9,116.1c-0.6,0-1.2-0.2-1.6-0.7c-0.9-0.9-0.9-2.4,0-3.3L142.5,87c0.9-0.9,2.4-0.9,3.3,0c0.9,0.9,0.9,2.4,0,3.2
			l-25.2,25.2C120.1,115.9,119.5,116.1,118.9,116.1z"/>
		<path d="M144.1,116.1c-0.6,0-1.2-0.2-1.6-0.7l-25.2-25.2c-0.9-0.9-0.9-2.4,0-3.2c0.9-0.9,2.4-0.9,3.2,0l25.2,25.2
			c0.9,0.9,0.9,2.4,0,3.3C145.3,115.9,144.7,116.1,144.1,116.1z"/>
	</g>
</g>
</svg>
