<?xml version="1.0" encoding="utf-8"?>
<!-- Generator: Adobe Illustrator 27.8.1, SVG Export Plug-In . SVG Version: 6.00 Build 0)  -->
<svg version="1.1" id="Layer_1" xmlns="http://www.w3.org/2000/svg" xmlns:xlink="http://www.w3.org/1999/xlink" x="0px" y="0px"
	 viewBox="0 0 200 200" style="enable-background:new 0 0 200 200;" xml:space="preserve">
<style type="text/css">
	.st0{fill:#FFFFFF;}
</style>
<g>
	<path d="M100,185.6c-47.2,0-85.6-38.4-85.6-85.6c0-47.2,38.4-85.6,85.6-85.6c47.2,0,85.6,38.4,85.6,85.6
		C185.6,147.2,147.2,185.6,100,185.6z M100,22.6c-42.7,0-77.4,34.7-77.4,77.4c0,42.7,34.7,77.4,77.4,77.4
		c42.7,0,77.4-34.7,77.4-77.4C177.4,57.3,142.7,22.6,100,22.6z"/>
	<g>
		<path d="M148.9,74.2c-0.7,0-1.4-0.4-1.8-1c-9.7-16.9-27.7-27.4-47.1-27.4c-13.3,0-26.1,4.9-36.1,13.8c-0.8,0.8-2.1,0.7-2.9-0.2
			c-0.8-0.8-0.7-2.1,0.2-2.9c10.7-9.6,24.5-14.8,38.8-14.8c20.9,0,40.3,11.3,50.7,29.5c0.6,1,0.2,2.2-0.8,2.8
			C149.6,74.1,149.3,74.2,148.9,74.2z"/>
		<g>
			<polygon points="70,59 51.1,72.1 60.9,51.3 			"/>
		</g>
	</g>
	<g>
		<path d="M100,158.3c-20.8,0-40.2-11.2-50.6-29.3c-0.6-1-0.2-2.2,0.8-2.8c1-0.6,2.2-0.2,2.8,0.8c9.6,16.8,27.7,27.3,47,27.3
			c13.3,0,26-4.9,36-13.7c0.8-0.8,2.1-0.7,2.9,0.2c0.8,0.9,0.7,2.1-0.2,2.9C128,153.1,114.3,158.3,100,158.3z"/>
		<g>
			<polygon points="139,148.8 148.8,128 129.9,141.1 			"/>
		</g>
	</g>
	<g>
		<path d="M100.2,122.8c-9.6,0-16-7.7-16-14.8v-1.4h11.1l0.1,1.2c0.2,1.8,1.5,4,4.7,4c1,0,4.3-0.3,4.3-3.8c0-1.3-0.5-4.4-5.1-4.4H95
			v-9.6H99c3.7,0,4.2-2.2,4.2-3.4c0-2.3-2.1-2.9-3.3-2.9c-1.3,0-2.9,0.5-3.2,2.7l-0.1,1.2H85.7v-1.4c0-7.4,6.2-13,14.5-13
			c8,0,14,5.4,14,12.5c0,3.4-1.3,6.6-3.5,8.6c3.1,2,5.1,5.8,5.1,10.2C115.8,116.5,109,122.8,100.2,122.8z M87,109.4
			c0.8,5.4,5.9,10.7,13.2,10.7c7.2,0,12.9-5.1,12.9-11.6c0-4-2-7.4-5-8.5l-0.9-0.3v-2.3l0.7-0.4c2.1-1.2,3.6-4.1,3.6-7.3
			c0-5.6-4.8-9.8-11.3-9.8c-5.3,0-10.9,3.1-11.7,8.8h5.7c0.9-2.9,3.4-4,5.6-4c3,0,6.1,1.9,6.1,5.7c0,2.8-1.8,6.2-7,6.2h-1.2v4.2h1.5
			c5.8,0,7.9,3.9,7.9,7.2c0,3.9-2.8,6.6-7,6.6c-4,0-6.4-2.5-7.2-5.2H87z"/>
	</g>
</g>
</svg>
