<?xml version="1.0" encoding="utf-8"?>
<!-- Generator: Adobe Illustrator 27.8.1, SVG Export Plug-In . SVG Version: 6.00 Build 0)  -->
<svg version="1.1" id="Layer_1" xmlns="http://www.w3.org/2000/svg" xmlns:xlink="http://www.w3.org/1999/xlink" x="0px" y="0px"
	 viewBox="0 0 200 200" style="enable-background:new 0 0 200 200;" xml:space="preserve">
<style type="text/css">
	.st0{fill:#FFFFFF;}
</style>
<g>
	<g>
		<g>
			<path d="M89.4,143.9C89.4,143.9,89.3,143.9,89.4,143.9h-8.8c-0.8,0-1.4-0.6-1.4-1.4v-27.1h-7.3c-0.8,0-1.4-0.6-1.4-1.4v-7
				c0-0.8,0.6-1.4,1.4-1.4h4.8c1.7,0,2.9-1.3,2.9-3v-2.3c0-0.8,0.6-1.4,1.4-1.4h8.3c0.8,0,1.4,0.6,1.4,1.4l0.1,41.7
				c0,0.1,0.1,0.3,0.1,0.4C90.8,143.3,90.1,143.9,89.4,143.9z M81.9,141.2h6l-0.1-39.4h-5.6v0.9c0,3.3-2.4,5.7-5.6,5.7h-3.4v4.2h7.3
				c0.8,0,1.4,0.6,1.4,1.4V141.2z"/>
			<path d="M127.8,143.9h-28c-0.8,0-1.4-0.6-1.4-1.4v-3.4c0-11.7,6.4-16.9,11.1-19.7c1.3-0.8,2.6-1.4,3.7-2c3.1-1.6,4.4-2.3,4.6-4.4
				c0.1-1.1-0.2-1.9-0.7-2.5c-0.6-0.7-1.6-1-2.8-1c-2.6,0-4.3,1.7-4.3,4.3c0,0.8-0.6,1.4-1.4,1.4h-8.8c-0.8,0-1.4-0.6-1.4-1.4
				c0-5.9,4.3-15.2,15.8-15.2c8.9,0,15.2,5.6,15.2,13.7c0,8.9-7.1,12.5-11.8,14.8c-4.7,2.4-6.1,4.1-6.5,5.6h16.6
				c0.8,0,1.4,0.6,1.4,1.4v8.3C129.2,143.3,128.6,143.9,127.8,143.9z M101.2,141.2h25.2v-5.5h-16.8c-0.8,0-1.4-0.6-1.4-1.4
				c0-3.8,2.3-6.5,8.2-9.4c5.4-2.7,10.3-5.7,10.3-12.4c0-7.6-6.2-11-12.4-11c-8.7,0-12.4,6.4-13,11.1h6c0.6-3.4,3.3-5.7,6.9-5.7
				c2,0,3.7,0.7,4.8,1.9c1.1,1.1,1.6,2.7,1.5,4.5c-0.2,3.8-2.9,5.1-6.1,6.7c-1.1,0.5-2.3,1.1-3.5,1.9c-4.2,2.5-9.8,7.1-9.8,17.4
				V141.2z"/>
		</g>
		<path d="M100,90c-3.2,0-5.8-2.6-5.8-5.8c0-3.2,2.6-5.8,5.8-5.8c3.2,0,5.8,2.6,5.8,5.8C105.8,87.4,103.2,90,100,90z M100,81.2
			c-1.7,0-3.1,1.4-3.1,3c0,1.7,1.4,3.1,3.1,3.1c1.7,0,3-1.4,3-3.1C103,82.6,101.7,81.2,100,81.2z"/>
		<path d="M125.2,57.5c-0.3,0-0.6-0.1-0.9-0.3c-15.4-12.5-33.3-12.5-48.6,0c-0.6,0.5-1.5,0.4-1.9-0.2c-0.5-0.6-0.4-1.5,0.2-1.9
			c8.2-6.7,16.9-10,26-10c9.1,0,17.9,3.4,26,10c0.6,0.5,0.7,1.3,0.2,1.9C126,57.3,125.6,57.5,125.2,57.5z"/>
		<path d="M116.1,66.1c-0.3,0-0.6-0.1-0.9-0.3c-9.6-7.9-20.9-7.9-30.5,0c-0.6,0.5-1.4,0.4-1.9-0.2c-0.5-0.6-0.4-1.4,0.2-1.9
			c10.6-8.7,23.3-8.7,34,0c0.6,0.5,0.7,1.3,0.2,1.9C116.9,66,116.5,66.1,116.1,66.1z"/>
		<path d="M108.2,73.9c-0.3,0-0.6-0.1-0.9-0.3c-4.6-3.8-10-3.8-14.6,0c-0.6,0.5-1.4,0.4-1.9-0.2c-0.5-0.6-0.4-1.5,0.2-1.9
			c5.6-4.6,12.4-4.6,18,0c0.6,0.5,0.7,1.3,0.2,1.9C109,73.7,108.6,73.9,108.2,73.9z"/>
	</g>
	<path d="M100,185.6c-47.2,0-85.6-38.4-85.6-85.6c0-47.2,38.4-85.6,85.6-85.6s85.6,38.4,85.6,85.6
		C185.6,147.2,147.2,185.6,100,185.6z M100,22.6c-42.7,0-77.4,34.7-77.4,77.4c0,42.7,34.7,77.4,77.4,77.4
		c42.7,0,77.4-34.7,77.4-77.4C177.4,57.3,142.7,22.6,100,22.6z"/>
</g>
</svg>
