<?xml version="1.0" encoding="utf-8"?>
<!-- Generator: Adobe Illustrator 26.0.2, SVG Export Plug-In . SVG Version: 6.00 Build 0)  -->
<svg version="1.1" id="Layer_1" xmlns="http://www.w3.org/2000/svg" xmlns:xlink="http://www.w3.org/1999/xlink" x="0px" y="0px"
	 viewBox="0 0 511 87.1" style="enable-background:new 0 0 511 87.1;" xml:space="preserve">
<style type="text/css">
	.st0{fill:#FFFFFF;}
</style>
<g>
	<path class="st0" d="M150.2,3.5h17v80.1h-17V3.5z"/>
	<path class="st0" d="M488.5,3.5h17v80h-17V3.5z"/>
	<path class="st0" d="M283.9,15.3c-7.4-7.7-17.6-11.9-28.2-11.7h-24.3v80h24.3c10.6,0.2,20.9-4.1,28.2-11.8
		c7.7-7.3,11.9-17.6,11.8-28.2C295.9,32.9,291.6,22.7,283.9,15.3z M271.9,59.8c-4.2,4.4-10.1,6.8-16.2,6.7h-7.3V20.7h7.2
		c6.1-0.1,12,2.3,16.2,6.7c4.4,4.3,6.8,10.2,6.7,16.3C278.7,49.7,276.3,55.6,271.9,59.8L271.9,59.8z"/>
	<path class="st0" d="M412.5,15.3c-7.4-7.6-17.7-11.9-28.3-11.7H360v80h24.2c10.6,0.2,20.9-4.1,28.2-11.7
		c7.7-7.4,11.9-17.6,11.8-28.2C424.4,32.9,420.1,22.7,412.5,15.3z M400.4,59.8c-4.2,4.4-10.1,6.8-16.2,6.7H377V20.7h7.2
		c6.1-0.1,11.9,2.3,16.2,6.7c4.4,4.3,6.8,10.2,6.7,16.3C407.2,49.7,404.8,55.6,400.4,59.8z"/>
	<path class="st0" d="M48.6,35.1l-3,17v0.1h21.2C63.6,61.1,55.1,67,45.6,67c-0.4,0-0.9,0-1.3-0.1c-5.6-0.2-10.9-2.7-14.8-6.8
		c-4.3-4.4-6.7-10.4-6.6-16.6c-0.1-6.2,2.3-12.1,6.6-16.5c4.2-4.4,10-6.9,16.1-6.8c1.9,0,3.7,0.2,5.5,0.6c5,1.2,9.4,4.1,12.4,8.3
		L76,16.7C70.6,9.9,62.8,5.2,54.2,3.6c-2.8-0.5-5.7-0.8-8.6-0.8C35,2.6,24.7,6.9,17.3,14.6c-7.7,7.6-12,18.1-11.8,28.9
		C5.3,54.3,9.6,64.7,17.3,72.3c6.7,7.1,15.9,11.4,25.6,11.9c0.9,0.1,1.8,0.1,2.7,0.1c10.8,0.2,21.1-4.2,28.5-12
		c5.6-5.5,9.4-12.5,10.9-20.2c0.6-2.8,0.9-5.7,0.9-8.6v-8.4H48.6z"/>
</g>
</svg>
